<svg width="32" height="33" viewBox="0 0 32 33" fill="none" xmlns="http://www.w3.org/2000/svg">
<path d="M26.9541 13.9283C26.9925 9.41673 23.15 5.28079 18.3884 4.70887C18.2937 4.69764 18.1906 4.68054 18.0813 4.66246C17.8456 4.6234 17.6018 4.58325 17.3559 4.58325C16.38 4.58325 16.1191 5.26877 16.0505 5.67761C15.9837 6.07512 16.0474 6.40894 16.2395 6.6702C16.5626 7.10965 17.1313 7.18767 17.588 7.25018C17.7219 7.26866 17.8482 7.28585 17.9539 7.3096C22.232 8.26553 23.6725 9.76843 24.3765 14.0101C24.3937 14.1138 24.4014 14.2415 24.4097 14.3769C24.4404 14.8839 24.5044 15.9388 25.6385 15.9388H25.6386C25.733 15.9388 25.8345 15.9307 25.9401 15.9146C26.9962 15.7541 26.9631 14.7898 26.9472 14.3265C26.9427 14.196 26.9385 14.0726 26.9495 13.9905C26.9525 13.9699 26.954 13.9491 26.9541 13.9283Z" fill="#00B5E3"/>
<path d="M17.079 3.05284C17.2057 3.06198 17.3257 3.07073 17.4255 3.08603C24.4505 4.16637 27.6812 7.49476 28.5765 14.5747C28.5917 14.695 28.5941 14.8418 28.5966 14.9972C28.6055 15.5504 28.6239 16.7011 29.8597 16.7249L29.8981 16.7253C30.2856 16.7253 30.5939 16.6085 30.8144 16.3777C31.1991 15.9753 31.1723 15.3776 31.1506 14.8972C31.1454 14.7793 31.1403 14.6683 31.1416 14.5711C31.2309 7.33019 24.9631 0.764148 17.7287 0.519975C17.6986 0.518981 17.67 0.520571 17.6411 0.524646C17.6269 0.526733 17.6006 0.529317 17.5554 0.529317C17.4833 0.529317 17.3945 0.523056 17.3004 0.516696C17.1866 0.508944 17.0577 0.5 16.9269 0.5C15.7748 0.5 15.5557 1.31888 15.5277 1.80703C15.4631 2.93517 16.5545 3.01458 17.079 3.05284Z" fill="#00B5E3"/>
<path d="M28.2375 23.725C28.0882 23.6109 27.9337 23.4929 27.7891 23.3764C27.0221 22.7592 26.2061 22.1902 25.417 21.64C25.2532 21.5259 25.0894 21.4117 24.9262 21.2972C23.9154 20.5871 23.0065 20.2421 22.1479 20.2421C20.9914 20.2421 19.9832 20.8811 19.151 22.1411C18.7823 22.6997 18.335 22.9713 17.7837 22.9713C17.4577 22.9713 17.0874 22.8783 16.683 22.6948C13.4201 21.2151 11.0902 18.9465 9.7578 15.9519C9.11372 14.5046 9.32252 13.5585 10.456 12.7885C11.0997 12.3516 12.2978 11.5383 12.2129 9.98087C12.1168 8.21223 8.21445 2.8906 6.57023 2.28618C5.87408 2.03018 5.14266 2.0278 4.39235 2.28022C2.50217 2.91565 1.14575 4.03157 0.469378 5.50714C-0.184235 6.93292 -0.154719 8.60706 0.554744 10.3486C2.60572 15.3837 5.48929 19.7736 9.12565 23.3963C12.685 26.9425 17.0597 29.8473 22.1282 32.0298C22.5851 32.2264 23.0643 32.3336 23.4142 32.4118C23.5335 32.4386 23.6364 32.4615 23.7114 32.4821C23.7527 32.4933 23.7952 32.4994 23.8379 32.4998L23.8779 32.5C23.8779 32.5 23.8779 32.5 23.8781 32.5C26.262 32.5 29.1244 30.3216 30.0035 27.8381C30.7737 25.6635 29.3675 24.5886 28.2375 23.725Z" fill="#00B5E3"/>
<path d="M18.1334 8.80446C17.7253 8.81479 16.8759 8.83586 16.5778 9.70095C16.4384 10.1052 16.4551 10.4562 16.6275 10.7442C16.8806 11.1668 17.3653 11.2963 17.8063 11.3673C19.4054 11.6239 20.2266 12.5082 20.3909 14.1499C20.4672 14.9154 20.9827 15.45 21.6446 15.45C21.6935 15.45 21.7435 15.4471 21.7933 15.4411C22.5894 15.3464 22.9752 14.7615 22.9404 13.7029C22.9531 12.5981 22.3749 11.3439 21.3915 10.3448C20.4048 9.34269 19.2154 8.77832 18.1334 8.80446Z" fill="#00B5E3"/>
</svg>
