<svg width="24" height="25" viewBox="0 0 24 25" fill="none" xmlns="http://www.w3.org/2000/svg">
<path d="M20.7596 10.5193C20.7892 7.04457 17.8297 3.85913 14.1625 3.41865C14.0895 3.41 14.0101 3.39683 13.926 3.3829C13.7444 3.35282 13.5567 3.3219 13.3672 3.3219C12.6156 3.3219 12.4147 3.84987 12.3618 4.16476C12.3104 4.47092 12.3594 4.72801 12.5074 4.92924C12.7563 5.2677 13.1943 5.32778 13.546 5.37592C13.6491 5.39016 13.7464 5.4034 13.8279 5.42169C17.1227 6.15793 18.2322 7.31544 18.7744 10.5823C18.7876 10.6621 18.7936 10.7605 18.8 10.8648C18.8236 11.2553 18.8729 12.0678 19.7464 12.0678H19.7465C19.8192 12.0678 19.8973 12.0615 19.9787 12.0491C20.7921 11.9255 20.7666 11.1828 20.7543 10.826C20.7509 10.7255 20.7476 10.6305 20.7561 10.5672C20.7584 10.5513 20.7595 10.5353 20.7596 10.5193Z" fill="#73448C"/>
<path d="M13.154 2.14316C13.2516 2.1502 13.344 2.15693 13.4209 2.16872C18.8314 3.00079 21.3196 5.56426 22.0092 11.0171C22.0209 11.1098 22.0227 11.2229 22.0247 11.3426C22.0315 11.7686 22.0457 12.6548 22.9975 12.6732L23.027 12.6735C23.3255 12.6735 23.563 12.5835 23.7328 12.4058C24.0291 12.0959 24.0084 11.6355 23.9917 11.2655C23.9877 11.1747 23.9838 11.0892 23.9848 11.0144C24.0536 5.43751 19.2262 0.380445 13.6543 0.192386C13.6312 0.191621 13.6092 0.192846 13.5869 0.195984C13.576 0.197591 13.5557 0.199581 13.5209 0.199581C13.4654 0.199581 13.397 0.194759 13.3245 0.189861C13.2369 0.183891 13.1375 0.177002 13.0368 0.177002C12.1495 0.177002 11.9808 0.80769 11.9592 1.18365C11.9095 2.05253 12.75 2.11369 13.154 2.14316Z" fill="#73448C"/>
<path d="M21.7481 18.0646C21.6331 17.9767 21.5141 17.8858 21.4028 17.7961C20.812 17.3207 20.1836 16.8825 19.5758 16.4587C19.4496 16.3708 19.3235 16.2829 19.1978 16.1947C18.4192 15.6478 17.7193 15.3821 17.058 15.3821C16.1673 15.3821 15.3907 15.8742 14.7498 16.8447C14.4658 17.2749 14.1213 17.4841 13.6967 17.4841C13.4457 17.4841 13.1604 17.4125 12.849 17.2711C10.336 16.1315 8.54147 14.3842 7.51531 12.0779C7.01925 10.9631 7.18006 10.2345 8.05307 9.64144C8.54882 9.30497 9.47159 8.67857 9.40622 7.47904C9.33221 6.11686 6.32664 2.01823 5.06029 1.55271C4.52413 1.35555 3.96079 1.35371 3.38292 1.54812C1.92713 2.03752 0.882438 2.89698 0.361508 4.03345C-0.141895 5.13156 -0.119162 6.42095 0.427256 7.76224C2.00689 11.6402 4.22777 15.0213 7.02844 17.8114C9.76979 20.5426 13.1391 22.7799 17.0428 24.4608C17.3947 24.6122 17.7638 24.6948 18.0333 24.755C18.1251 24.7757 18.2044 24.7933 18.2622 24.8091C18.294 24.8178 18.3267 24.8224 18.3595 24.8227L18.3904 24.8229C18.3904 24.8229 18.3904 24.8229 18.3905 24.8229C20.2266 24.8229 22.4312 23.1451 23.1082 21.2324C23.7014 19.5576 22.6184 18.7297 21.7481 18.0646Z" fill="#73448C"/>
<path d="M13.9661 6.57294C13.6517 6.5809 12.9975 6.59712 12.768 7.2634C12.6606 7.57476 12.6735 7.8451 12.8063 8.06692C13.0011 8.39236 13.3745 8.49209 13.7141 8.54682C14.9457 8.74445 15.5782 9.4255 15.7048 10.6899C15.7635 11.2795 16.1606 11.6912 16.6703 11.6912C16.708 11.6912 16.7465 11.689 16.7849 11.6843C17.398 11.6114 17.6952 11.161 17.6683 10.3457C17.6781 9.49477 17.2328 8.52876 16.4754 7.7593C15.7155 6.98747 14.7994 6.55281 13.9661 6.57294Z" fill="#73448C"/>
</svg>


