<svg width="24" height="25" viewBox="0 0 24 25" fill="none" xmlns="http://www.w3.org/2000/svg">
<path d="M22.6752 0.5H1.32363C0.592529 0.500439 -0.000146457 1.09341 2.71477e-08 1.8248V23.1764C0.000439482 23.9075 0.593408 24.5001 1.3248 24.5H12.8203V15.2188H9.70313V11.5859H12.8203V8.91245C12.8203 5.81211 14.713 4.12461 17.4787 4.12461C18.8033 4.12461 19.9417 4.22334 20.2734 4.26743V7.50781H18.3664C16.8617 7.50781 16.5703 8.2228 16.5703 9.27222V11.5859H20.168L19.6992 15.2188H16.5703V24.5H22.6752C23.4067 24.5001 23.9999 23.9073 24 23.1758C24 23.1756 24 23.1755 24 23.1752V1.82363C23.9997 1.09253 23.4066 0.499854 22.6752 0.5Z" fill="#73448C"/>
</svg>

