<svg width="32" height="33" viewBox="0 0 32 33" fill="none" xmlns="http://www.w3.org/2000/svg">
<path d="M30.2336 0.5H1.76484C0.790039 0.500586 -0.000195276 1.29121 3.61969e-08 2.26641V30.7352C0.000585976 31.71 0.791211 32.5002 1.76641 32.5H17.0938V20.125H12.9375V15.2813H17.0938V11.7166C17.0938 7.58281 19.6174 5.33281 23.3049 5.33281C25.0711 5.33281 26.5889 5.46445 27.0313 5.52324V9.84375H24.4885C22.4822 9.84375 22.0938 10.7971 22.0938 12.1963V15.2813H26.8906L26.2656 20.125H22.0938V32.5H30.2336C31.209 32.5002 31.9998 31.7098 32 30.7344C32 30.7342 32 30.734 32 30.7336V2.26484C31.9996 1.29004 31.2088 0.499805 30.2336 0.5Z" fill="#00B5E3"/>
</svg>
