<svg width="32" height="33" viewBox="0 0 32 33" fill="none" xmlns="http://www.w3.org/2000/svg">
<path d="M23.1621 11.0815C23.0149 10.6826 22.78 10.3215 22.4749 10.0251C22.1785 9.71997 21.8176 9.48511 21.4185 9.33789C21.0947 9.21216 20.6084 9.0625 19.7126 9.02173C18.7437 8.97754 18.4531 8.96802 16 8.96802C13.5466 8.96802 13.2561 8.97729 12.2874 9.02148C11.3916 9.0625 10.905 9.21216 10.5815 9.33789C10.1824 9.48511 9.82129 9.71997 9.52515 10.0251C9.21997 10.3215 8.98511 10.6824 8.83765 11.0815C8.71191 11.4053 8.56226 11.8918 8.52148 12.7876C8.47729 13.7563 8.46777 14.0469 8.46777 16.5002C8.46777 18.9534 8.47729 19.2439 8.52148 20.2129C8.56226 21.1086 8.71191 21.595 8.83765 21.9187C8.98511 22.3179 9.21973 22.6787 9.5249 22.9751C9.82129 23.2803 10.1821 23.5151 10.5813 23.6624C10.905 23.7883 11.3916 23.938 12.2874 23.9788C13.2561 24.023 13.5464 24.0322 15.9998 24.0322C18.4534 24.0322 18.7439 24.023 19.7124 23.9788C20.6082 23.938 21.0947 23.7883 21.4185 23.6624C22.2197 23.3533 22.853 22.72 23.1621 21.9187C23.2878 21.595 23.4375 21.1086 23.4785 20.2129C23.5227 19.2439 23.532 18.9534 23.532 16.5002C23.532 14.0469 23.5227 13.7563 23.4785 12.7876C23.4377 11.8918 23.2881 11.4053 23.1621 11.0815ZM16 21.2178C13.3943 21.2178 11.282 19.1057 11.282 16.5C11.282 13.8943 13.3943 11.7822 16 11.7822C18.6055 11.7822 20.7178 13.8943 20.7178 16.5C20.7178 19.1057 18.6055 21.2178 16 21.2178ZM20.9043 12.6982C20.2954 12.6982 19.8018 12.2046 19.8018 11.5957C19.8018 10.9868 20.2954 10.4932 20.9043 10.4932C21.5132 10.4932 22.0068 10.9868 22.0068 11.5957C22.0066 12.2046 21.5132 12.6982 20.9043 12.6982Z" fill="#00B5E3"/>
<path d="M19.0625 16.5C19.0625 18.1914 17.6914 19.5625 16 19.5625C14.3086 19.5625 12.9375 18.1914 12.9375 16.5C12.9375 14.8086 14.3086 13.4375 16 13.4375C17.6914 13.4375 19.0625 14.8086 19.0625 16.5Z" fill="#00B5E3"/>
<path d="M29.6921 0.5H2.30786C1.0332 0.5 0 1.5332 0 2.80786V30.1921C0 31.4668 1.0332 32.5 2.30786 32.5H29.6921C30.9668 32.5 32 31.4668 32 30.1921V2.80786C32 1.5332 30.9668 0.5 29.6921 0.5ZM25.1321 20.2878C25.0876 21.2659 24.9321 21.9336 24.7051 22.5181C24.2278 23.7522 23.2522 24.7278 22.0181 25.2051C21.4338 25.4321 20.7659 25.5874 19.7881 25.6321C18.8083 25.6768 18.4954 25.6875 16.0002 25.6875C13.5049 25.6875 13.1921 25.6768 12.2122 25.6321C11.2344 25.5874 10.5664 25.4321 9.98218 25.2051C9.3689 24.9744 8.81372 24.6128 8.35474 24.1453C7.88745 23.6865 7.52588 23.1311 7.29517 22.5181C7.06812 21.9338 6.9126 21.2659 6.86816 20.2881C6.823 19.3081 6.8125 18.9951 6.8125 16.5C6.8125 14.0049 6.823 13.6919 6.86792 12.7122C6.91235 11.7341 7.06763 11.0664 7.29468 10.4819C7.52539 9.8689 7.88721 9.31348 8.35474 8.85474C8.81348 8.38721 9.3689 8.02563 9.98193 7.79492C10.5664 7.56787 11.2341 7.4126 12.2122 7.36792C13.1919 7.32324 13.5049 7.3125 16 7.3125C18.4951 7.3125 18.8081 7.32324 19.7878 7.36816C20.7659 7.4126 21.4336 7.56787 22.0181 7.79468C22.6311 8.02539 23.1865 8.38721 23.6455 8.85474C24.1128 9.31372 24.4746 9.8689 24.7051 10.4819C24.9324 11.0664 25.0876 11.7341 25.1323 12.7122C25.177 13.6919 25.1875 14.0049 25.1875 16.5C25.1875 18.9951 25.177 19.3081 25.1321 20.2878Z" fill="#00B5E3"/>
</svg>
