<svg width="24" height="25" viewBox="0 0 24 25" fill="none" xmlns="http://www.w3.org/2000/svg">
<path d="M17.3716 8.43622C17.2612 8.13702 17.085 7.86621 16.8561 7.64392C16.6339 7.41504 16.3632 7.23889 16.0638 7.12848C15.821 7.03418 15.4563 6.92194 14.7845 6.89136C14.0577 6.85822 13.8398 6.85107 12 6.85107C10.16 6.85107 9.94208 6.85803 9.21552 6.89117C8.5437 6.92194 8.17877 7.03418 7.93616 7.12848C7.63678 7.23889 7.36597 7.41504 7.14386 7.64392C6.91498 7.86621 6.73883 8.13684 6.62823 8.43622C6.53394 8.67902 6.42169 9.04395 6.39111 9.71576C6.35797 10.4423 6.35083 10.6602 6.35083 12.5002C6.35083 14.3401 6.35797 14.558 6.39111 15.2847C6.42169 15.9565 6.53394 16.3213 6.62823 16.5641C6.73883 16.8635 6.91479 17.1341 7.14368 17.3564C7.36597 17.5853 7.6366 17.7614 7.93597 17.8718C8.17877 17.9663 8.5437 18.0786 9.21552 18.1091C9.94208 18.1423 10.1598 18.1492 11.9998 18.1492C13.84 18.1492 14.0579 18.1423 14.7843 18.1091C15.4561 18.0786 15.821 17.9663 16.0638 17.8718C16.6648 17.64 17.1398 17.165 17.3716 16.5641C17.4659 16.3213 17.5781 15.9565 17.6089 15.2847C17.642 14.558 17.649 14.3401 17.649 12.5002C17.649 10.6602 17.642 10.4423 17.6089 9.71576C17.5783 9.04395 17.4661 8.67902 17.3716 8.43622ZM12 16.0384C10.0457 16.0384 8.46149 14.4543 8.46149 12.5001C8.46149 10.5458 10.0457 8.96173 12 8.96173C13.9541 8.96173 15.5383 10.5458 15.5383 12.5001C15.5383 14.4543 13.9541 16.0384 12 16.0384ZM15.6782 9.64874C15.2216 9.64874 14.8513 9.2785 14.8513 8.82184C14.8513 8.36517 15.2216 7.99493 15.6782 7.99493C16.1349 7.99493 16.5051 8.36517 16.5051 8.82184C16.5049 9.2785 16.1349 9.64874 15.6782 9.64874Z" fill="#73448C"/>
<path d="M14.2969 12.5C14.2969 13.7686 13.2686 14.7969 12 14.7969C10.7314 14.7969 9.70312 13.7686 9.70312 12.5C9.70312 11.2314 10.7314 10.2031 12 10.2031C13.2686 10.2031 14.2969 11.2314 14.2969 12.5Z" fill="#73448C"/>
<path d="M22.2691 0.5H1.7309C0.774902 0.5 0 1.2749 0 2.2309V22.7691C0 23.7251 0.774902 24.5 1.7309 24.5H22.2691C23.2251 24.5 24 23.7251 24 22.7691V2.2309C24 1.2749 23.2251 0.5 22.2691 0.5ZM18.8491 15.3409C18.8157 16.0744 18.6991 16.5752 18.5288 17.0135C18.1708 17.9391 17.4391 18.6708 16.5135 19.0288C16.0754 19.1991 15.5744 19.3156 14.8411 19.3491C14.1063 19.3826 13.8715 19.3906 12.0002 19.3906C10.1287 19.3906 9.8941 19.3826 9.15912 19.3491C8.42578 19.3156 7.9248 19.1991 7.48663 19.0288C7.02667 18.8558 6.61029 18.5846 6.26605 18.2339C5.91559 17.8899 5.64441 17.4733 5.47137 17.0135C5.30109 16.5754 5.18445 16.0744 5.15112 15.3411C5.11725 14.6061 5.10938 14.3713 5.10938 12.5C5.10938 10.6287 5.11725 10.3939 5.15094 9.65912C5.18427 8.9256 5.30072 8.4248 5.47101 7.98645C5.64404 7.52667 5.91541 7.11011 6.26605 6.76605C6.61011 6.41541 7.02667 6.14423 7.48645 5.97119C7.9248 5.8009 8.4256 5.68445 9.15912 5.65094C9.89392 5.61743 10.1287 5.60938 12 5.60938C13.8713 5.60938 14.1061 5.61743 14.8409 5.65112C15.5744 5.68445 16.0752 5.8009 16.5135 5.97101C16.9733 6.14404 17.3899 6.41541 17.7341 6.76605C18.0846 7.11029 18.356 7.52667 18.5288 7.98645C18.6993 8.4248 18.8157 8.9256 18.8492 9.65912C18.8828 10.3939 18.8906 10.6287 18.8906 12.5C18.8906 14.3713 18.8828 14.6061 18.8491 15.3409Z" fill="#73448C"/>
</svg>

