<svg width="29" height="33" viewBox="0 0 29 33" fill="none" xmlns="http://www.w3.org/2000/svg">
<path d="M14.0989 0.5C8.47607 0.5 3.78638 5.02938 3.78638 10.8125C3.78638 13.0126 4.4475 14.9745 5.71632 16.8129L13.3097 28.6616C13.6781 29.2376 14.5204 29.2365 14.8881 28.6616L22.5144 16.7726C23.7559 15.0175 24.4114 12.9567 24.4114 10.8125C24.4114 5.12619 19.7852 0.5 14.0989 0.5ZM14.0989 15.5C11.5143 15.5 9.41138 13.3971 9.41138 10.8125C9.41138 8.22794 11.5143 6.125 14.0989 6.125C16.6834 6.125 18.7864 8.22794 18.7864 10.8125C18.7864 13.3971 16.6834 15.5 14.0989 15.5Z" fill="#00B5E3"/>
<path d="M21.4279 22.0435L16.7072 29.4239C15.4853 31.329 12.7057 31.3228 11.4896 29.4257L6.76125 22.0454C2.601 23.0073 0.036377 24.7693 0.036377 26.875C0.036377 30.5289 7.28188 32.5 14.0989 32.5C20.9159 32.5 28.1614 30.5289 28.1614 26.875C28.1614 24.7678 25.5932 23.0048 21.4279 22.0435Z" fill="#00B5E3"/>
</svg>
