<svg width="24" height="29" viewBox="0 0 24 29" fill="none" xmlns="http://www.w3.org/2000/svg">
<path d="M12 0.84668C7.20187 0.84668 3.2 4.71175 3.2 9.64668C3.2 11.5241 3.76416 13.1983 4.84688 14.767L11.3266 24.8779C11.6409 25.3695 12.3597 25.3685 12.6734 24.8779L19.1812 14.7326C20.2406 13.2349 20.8 11.4764 20.8 9.64668C20.8 4.79436 16.8523 0.84668 12 0.84668ZM12 13.6467C9.79451 13.6467 8 11.8522 8 9.64668C8 7.44119 9.79451 5.64668 12 5.64668C14.2055 5.64668 16 7.44119 16 9.64668C16 11.8522 14.2055 13.6467 12 13.6467Z" fill="#73448C"/>
<path d="M18.2541 19.2305L14.2258 25.5284C13.183 27.1541 10.8111 27.1488 9.77344 25.53L5.73856 19.2321C2.18848 20.0529 0 21.5565 0 23.3534C0 26.4714 6.18283 28.1534 12 28.1534C17.8172 28.1534 24 26.4714 24 23.3534C24 21.5553 21.8085 20.0508 18.2541 19.2305Z" fill="#73448C"/>
</svg>

