<svg width="33" height="33" viewBox="0 0 33 33" fill="none" xmlns="http://www.w3.org/2000/svg">
<path d="M0.161362 14.521V31.1039L10.8218 22.8125L0.161362 14.521Z" fill="#00B5E3"/>
<path d="M27.9739 10.2068V15.3053L31.1222 12.8566L27.9739 10.2068Z" fill="#00B5E3"/>
<path d="M16.7026 0.720172C16.3537 0.426609 15.8441 0.426609 15.4952 0.720172L13.0092 2.81249H19.1884L16.7026 0.720172Z" fill="#00B5E3"/>
<path d="M4.22386 10.2068L1.07555 12.8566L4.22386 15.3053V10.2068Z" fill="#00B5E3"/>
<path d="M12.6705 23.75L1.42049 32.5H30.7773L19.5272 23.75H12.6705Z" fill="#00B5E3"/>
<path d="M21.3759 22.8126L32.0364 31.1041V14.521L21.3759 22.8126Z" fill="#00B5E3"/>
<path d="M15.8626 11.7102C15.1021 11.7102 14.3156 12.4496 14.3156 13.6868C14.3156 14.9447 15.0828 15.7897 15.7994 15.7897C16.5541 15.7897 17.1729 14.9068 17.2174 13.7966L17.2186 13.561C17.1849 12.4657 16.6368 11.7102 15.8626 11.7102Z" fill="#00B5E3"/>
<path d="M19.5272 21.875L26.0989 16.7637V5.625C26.0989 5.10725 25.6791 4.6875 25.1614 4.6875H7.03636C6.51861 4.6875 6.09886 5.10725 6.09886 5.625V16.7638L12.6705 21.875H19.5272ZM9.48999 15.4943C9.0423 13.7921 9.26743 11.9976 10.124 10.4414C10.9802 8.88575 12.3754 7.735 14.0527 7.20106C15.8223 6.63763 17.7012 6.80363 19.3432 7.66844C20.9854 8.53331 22.1851 9.98806 22.7213 11.7648C22.7242 11.7744 22.727 11.7841 22.7296 11.7939C23.0859 13.1289 22.9804 14.3891 22.3874 15.8801C21.9866 16.8878 21.0039 17.9647 19.448 17.9647C18.8835 17.9647 18.3422 17.7332 17.9238 17.3128C17.8248 17.2133 17.7356 17.1049 17.6557 16.9901C17.1303 17.4174 16.4931 17.6647 15.7995 17.6647C14.8934 17.6647 14.0124 17.2248 13.3824 16.4578C12.7751 15.7183 12.4406 14.7343 12.4406 13.6868C12.4406 12.6347 12.7965 11.6611 13.4427 10.9456C14.08 10.2399 14.9621 9.83519 15.8626 9.83519C16.3579 9.83519 16.8286 9.95325 17.2516 10.1757C17.3336 9.74113 17.7145 9.41281 18.1719 9.41281H18.1767C18.6944 9.41538 19.1121 9.83719 19.1096 10.3549L19.0837 15.5634C19.0829 15.7233 19.1462 15.8828 19.2529 15.9901C19.2899 16.0273 19.3644 16.0896 19.448 16.0896C20.2045 16.0896 20.5372 15.4584 20.6451 15.1871C21.0831 14.086 21.1661 13.2191 20.9218 12.2918C20.5297 11.0064 19.6593 9.954 18.4695 9.32738C17.2755 8.6985 15.9087 8.57794 14.6215 8.98763C12.0841 9.79538 10.6266 12.4439 11.3034 15.0173C11.8654 17.1543 13.7971 18.6893 16.0009 18.7503C16.5184 18.7646 16.9264 19.1958 16.9121 19.7134C16.898 20.2221 16.4811 20.6249 15.9754 20.6249C15.9666 20.6249 15.9579 20.6248 15.949 20.6246C14.4962 20.5844 13.0621 20.0683 11.9107 19.1713C10.7146 18.2396 9.87761 16.9681 9.48999 15.4943Z" fill="#00B5E3"/>
</svg>
