<svg width="24" height="25" viewBox="0 0 24 25" fill="none" xmlns="http://www.w3.org/2000/svg">
<path d="M0 11.01V23.496L8.02668 17.253L0 11.01Z" fill="#73448C"/>
<path d="M20.9412 7.7616V11.6005L23.3117 9.75675L20.9412 7.7616Z" fill="#73448C"/>
<path d="M12.4545 0.618779C12.1919 0.397744 11.8081 0.397744 11.5455 0.618779L9.6737 2.19417H14.3263L12.4545 0.618779Z" fill="#73448C"/>
<path d="M3.05882 7.7616L0.688327 9.75675L3.05882 11.6005V7.7616Z" fill="#73448C"/>
<path d="M9.41864 17.9589L0.948047 24.5471H23.052L14.5814 17.9589H9.41864Z" fill="#73448C"/>
<path d="M15.9733 17.2531L24 23.4961V11.01L15.9733 17.2531Z" fill="#73448C"/>
<path d="M11.8221 8.89368C11.2495 8.89368 10.6573 9.45038 10.6573 10.382C10.6573 11.3291 11.235 11.9653 11.7745 11.9653C12.3427 11.9653 12.8087 11.3005 12.8422 10.4646L12.8431 10.2872C12.8177 9.46252 12.405 8.89368 11.8221 8.89368Z" fill="#73448C"/>
<path d="M14.5814 16.5471L19.5294 12.6986V4.31184C19.5294 3.922 19.2134 3.60596 18.8235 3.60596H5.17647C4.78663 3.60596 4.47059 3.922 4.47059 4.31184V12.6987L9.41863 16.5471H14.5814ZM7.0239 11.7428C6.68682 10.4612 6.85633 9.11 7.50127 7.93829C8.14593 6.76699 9.19647 5.90055 10.4594 5.49852C11.7918 5.07429 13.2065 5.19927 14.4428 5.85043C15.6792 6.50163 16.5826 7.59697 16.9863 8.93471C16.9885 8.94196 16.9906 8.9493 16.9925 8.95664C17.2608 9.96182 17.1814 10.9107 16.7349 12.0333C16.4331 12.7921 15.6932 13.6029 14.5217 13.6029C14.0967 13.6029 13.6891 13.4286 13.3741 13.112C13.2995 13.0371 13.2324 12.9555 13.1722 12.8691C12.7766 13.1909 12.2968 13.377 11.7746 13.377C11.0923 13.377 10.429 13.0458 9.95468 12.4683C9.49736 11.9115 9.24555 11.1706 9.24555 10.3819C9.24555 9.58972 9.5135 8.85669 10.0001 8.31791C10.4799 7.78662 11.144 7.48186 11.8221 7.48186C12.1951 7.48186 12.5495 7.57076 12.8679 7.73824C12.9296 7.41104 13.2165 7.16384 13.5609 7.16384H13.5645C13.9543 7.16577 14.2688 7.48337 14.2669 7.8732L14.2474 11.7949C14.2468 11.9153 14.2944 12.0354 14.3748 12.1161C14.4026 12.1441 14.4587 12.191 14.5217 12.191C15.0913 12.191 15.3418 11.7158 15.4231 11.5115C15.7528 10.6825 15.8153 10.0297 15.6314 9.33156C15.3362 8.36375 14.6808 7.57132 13.7849 7.09951C12.8859 6.626 11.8568 6.53523 10.8876 6.8437C8.97708 7.45189 7.87967 9.44605 8.38927 11.3837C8.81242 12.9927 10.2669 14.1485 11.9262 14.1944C12.3159 14.2052 12.6231 14.5299 12.6123 14.9196C12.6017 15.3026 12.2878 15.6059 11.9071 15.6059C11.9004 15.6059 11.8938 15.6058 11.8872 15.6056C10.7933 15.5754 9.71346 15.1868 8.84659 14.5114C7.94597 13.8099 7.31576 12.8525 7.0239 11.7428Z" fill="#73448C"/>
</svg>

