<svg width="32" height="33" viewBox="0 0 32 33" fill="none" xmlns="http://www.w3.org/2000/svg">
<path d="M25.4375 0.5H6.5625C2.94394 0.5 0 3.44394 0 7.0625V25.9375C0 29.5561 2.94394 32.5 6.5625 32.5H25.4375C29.0561 32.5 32 29.5561 32 25.9375V7.0625C32 3.44394 29.0561 0.5 25.4375 0.5ZM23.419 9.625L15.9974 17.0466L8.57581 9.625H23.419ZM6.42212 21.6271C6.35237 21.4959 6.3125 21.3464 6.3125 21.1875V10.5625C6.3125 10.4036 6.35237 10.2541 6.42212 10.1229L12.1742 15.875L6.42212 21.6271ZM8.57581 22.125L13.5 17.2008L15.9974 19.6982L18.4974 17.1982L23.4242 22.125H8.57581ZM25.6875 21.1875C25.6875 21.3464 25.6476 21.4959 25.5779 21.6271L19.8232 15.8724L25.5761 10.1194C25.6471 10.2514 25.6875 10.4022 25.6875 10.5625V21.1875Z" fill="#00B5E3"/>
</svg>
