


<svg width="24" height="25" viewBox="0 0 24 25" fill="none" xmlns="http://www.w3.org/2000/svg">
<path d="M12 0.5C5.3736 0.5 0 5.8736 0 12.5C0 19.1264 5.3736 24.5 12 24.5C18.6264 24.5 24 19.1264 24 12.5C24 5.8736 18.6264 0.5 12 0.5ZM12.2543 19.4868C12.2545 19.4868 12.2542 19.4868 12.2543 19.4868H12.2514C11.0493 19.4862 9.8681 19.1848 8.81909 18.6128L5.01178 19.6113L6.03076 15.8906C5.40216 14.8018 5.07147 13.5666 5.07202 12.3011C5.07367 8.34241 8.29559 5.12177 12.2543 5.12177C14.1755 5.1225 15.9789 5.8703 17.3348 7.22729C18.6909 8.58447 19.4372 10.3884 19.4365 12.3068C19.4348 16.2657 16.2125 19.4868 12.2543 19.4868Z" fill="#73448C"/>
<path d="M12.2567 6.33447C8.96393 6.33447 6.28601 9.01129 6.28455 12.3017C6.28418 13.4293 6.59985 14.5273 7.19733 15.4775L7.33923 15.7032L6.73608 17.9055L8.99542 17.3129L9.2135 17.4422C10.1299 17.986 11.1806 18.2737 12.2518 18.274H12.2542C15.5444 18.274 18.2223 15.597 18.2238 12.3065C18.2243 10.7118 17.6039 9.21252 16.4769 8.08459C15.3499 6.95667 13.851 6.33502 12.2567 6.33447ZM15.7679 14.8674C15.6183 15.2863 14.9015 15.6688 14.5567 15.7205C14.2474 15.7666 13.8563 15.7858 13.4264 15.6494C13.1656 15.5667 12.8315 15.4562 12.4032 15.2715C10.6031 14.4944 9.42737 12.6824 9.33765 12.5626C9.24793 12.4429 8.60486 11.5898 8.60486 10.7067C8.60486 9.82373 9.06848 9.38959 9.23291 9.21014C9.39752 9.03052 9.59198 8.98566 9.71155 8.98566C9.83112 8.98566 9.95087 8.98676 10.0554 8.99188C10.1656 8.99738 10.3136 8.94995 10.4592 9.29987C10.6088 9.65912 10.9677 10.5421 11.0125 10.6318C11.0574 10.7217 11.0872 10.8264 11.0275 10.9462C10.9677 11.0659 10.7688 11.3243 10.5789 11.5598C10.4993 11.6584 10.3954 11.7463 10.5002 11.926C10.6047 12.1054 10.9651 12.693 11.4985 13.1687C12.184 13.7799 12.7623 13.9692 12.9417 14.0591C13.121 14.1489 13.2257 14.1339 13.3304 14.0143C13.435 13.8945 13.7791 13.4904 13.8986 13.3108C14.0182 13.1312 14.1379 13.1612 14.3024 13.2211C14.467 13.2808 15.3492 13.7149 15.5286 13.8046C15.7081 13.8945 15.8276 13.9394 15.8725 14.0143C15.9175 14.0892 15.9175 14.4482 15.7679 14.8674Z" fill="#73448C"/>
</svg>
