<svg width="32" height="33" viewBox="0 0 32 33" fill="none" xmlns="http://www.w3.org/2000/svg">
<path d="M16 0.5C7.16479 0.5 0 7.66479 0 16.5C0 25.3352 7.16479 32.5 16 32.5C24.8352 32.5 32 25.3352 32 16.5C32 7.66479 24.8352 0.5 16 0.5ZM16.3391 25.8157C16.3394 25.8157 16.3389 25.8157 16.3391 25.8157H16.3352C14.7324 25.8149 13.1575 25.4131 11.7588 24.6504L6.68237 25.9817L8.04102 21.0208C7.20288 19.5691 6.76196 17.9221 6.7627 16.2349C6.76489 10.9565 11.0608 6.66235 16.3391 6.66235C18.9006 6.66333 21.3052 7.6604 23.113 9.46973C24.9211 11.2793 25.9163 13.6846 25.9153 16.2424C25.9131 21.521 21.6167 25.8157 16.3391 25.8157Z" fill="#00B5E3"/>
<path d="M16.3423 8.2793C11.9519 8.2793 8.38135 11.8484 8.37939 16.2356C8.37891 17.739 8.79981 19.2031 9.59644 20.47L9.78565 20.771L8.98145 23.7073L11.9939 22.9172L12.2847 23.0896C13.5066 23.8147 14.9075 24.1982 16.3357 24.1987H16.3389C20.7258 24.1987 24.2964 20.6294 24.2983 16.2419C24.2991 14.1157 23.4719 12.1167 21.9692 10.6128C20.4666 9.10889 18.468 8.28003 16.3423 8.2793ZM21.0239 19.6565C20.8245 20.2151 19.8687 20.7251 19.4089 20.7939C18.9966 20.8555 18.4751 20.8811 17.9019 20.6992C17.5542 20.5889 17.1086 20.4417 16.5376 20.1953C14.1375 19.1592 12.5698 16.7432 12.4502 16.5835C12.3306 16.4238 11.4731 15.2864 11.4731 14.1089C11.4731 12.9316 12.0913 12.3528 12.3105 12.1135C12.53 11.874 12.7893 11.8142 12.9487 11.8142C13.1082 11.8142 13.2678 11.8157 13.4072 11.8225C13.5542 11.8298 13.7515 11.7666 13.9456 12.2332C14.145 12.7122 14.6235 13.8894 14.6834 14.009C14.7432 14.1289 14.783 14.2686 14.7034 14.4282C14.6235 14.5879 14.3584 14.9324 14.1052 15.2463C13.999 15.3779 13.8606 15.4951 14.0002 15.7346C14.1396 15.9739 14.6201 16.7573 15.3313 17.3916C16.2454 18.2065 17.0164 18.459 17.2556 18.5789C17.4946 18.6985 17.6343 18.6785 17.7739 18.519C17.9133 18.3594 18.3721 17.8206 18.5315 17.5811C18.6909 17.3416 18.8506 17.3816 19.0698 17.4614C19.2893 17.541 20.4656 18.1199 20.7048 18.2395C20.9441 18.3594 21.1035 18.4192 21.1633 18.519C21.2234 18.6189 21.2234 19.0977 21.0239 19.6565Z" fill="#00B5E3"/>
</svg>
