<svg width="24" height="25" viewBox="0 0 24 25" fill="none" xmlns="http://www.w3.org/2000/svg">
<path d="M10.5053 14.7482L14.4088 12.5L10.5053 10.2518V14.7482Z" fill="#73448C"/>
<path d="M22.2691 0.5H1.7309C0.774902 0.5 0 1.2749 0 2.2309V22.7691C0 23.7251 0.774902 24.5 1.7309 24.5H22.2691C23.2251 24.5 24 23.7251 24 22.7691V2.2309C24 1.2749 23.2251 0.5 22.2691 0.5ZM19.4982 12.5123C19.4982 12.5123 19.4982 14.9459 19.1895 16.1194C19.0164 16.7618 18.5099 17.2682 17.8676 17.4411C16.6941 17.75 12 17.75 12 17.75C12 17.75 7.31818 17.75 6.13239 17.4288C5.49005 17.256 4.98358 16.7493 4.81055 16.107C4.50165 14.9459 4.50165 12.5 4.50165 12.5C4.50165 12.5 4.50165 10.0665 4.81055 8.89301C4.9834 8.25067 5.50232 7.73175 6.13239 7.5589C7.30591 7.25 12 7.25 12 7.25C12 7.25 16.6941 7.25 17.8676 7.57117C18.5099 7.74402 19.0164 8.25067 19.1895 8.89301C19.5106 10.0665 19.4982 12.5123 19.4982 12.5123Z" fill="#73448C"/>
</svg>

