<svg width="32" height="33" viewBox="0 0 32 33" fill="none" xmlns="http://www.w3.org/2000/svg">
<path d="M14.0071 19.4976L19.2117 16.5L14.0071 13.5024V19.4976Z" fill="#00B5E3"/>
<path d="M29.6921 0.5H2.30786C1.0332 0.5 0 1.5332 0 2.80786V30.1921C0 31.4668 1.0332 32.5 2.30786 32.5H29.6921C30.9668 32.5 32 31.4668 32 30.1921V2.80786C32 1.5332 30.9668 0.5 29.6921 0.5ZM25.9976 16.5164C25.9976 16.5164 25.9976 19.7612 25.5859 21.3259C25.3552 22.1824 24.6799 22.8577 23.8235 23.0881C22.2588 23.5 16 23.5 16 23.5C16 23.5 9.75757 23.5 8.17651 23.0718C7.32007 22.8413 6.64478 22.1658 6.41406 21.3093C6.0022 19.7612 6.0022 16.5 6.0022 16.5C6.0022 16.5 6.0022 13.2554 6.41406 11.6907C6.64453 10.8342 7.33643 10.1423 8.17651 9.91187C9.74121 9.5 16 9.5 16 9.5C16 9.5 22.2588 9.5 23.8235 9.92822C24.6799 10.1587 25.3552 10.8342 25.5859 11.6907C26.0142 13.2554 25.9976 16.5164 25.9976 16.5164Z" fill="#00B5E3"/>
</svg>
