<svg width="32" height="32" viewBox="0 0 32 32" fill="none" xmlns="http://www.w3.org/2000/svg">
<path d="M26.9541 13.4281C26.9925 8.91648 23.15 4.78055 18.3884 4.20862C18.2937 4.19739 18.1906 4.1803 18.0813 4.16221C17.8456 4.12316 17.6018 4.08301 17.3559 4.08301C16.38 4.08301 16.1191 4.76852 16.0505 5.17736C15.9837 5.57488 16.0474 5.90869 16.2395 6.16996C16.5626 6.60941 17.1313 6.68742 17.588 6.74993C17.7219 6.76842 17.8482 6.78561 17.9539 6.80936C22.232 7.76528 23.6725 9.26818 24.3765 13.5099C24.3937 13.6135 24.4014 13.7412 24.4097 13.8767C24.4404 14.3837 24.5044 15.4386 25.6385 15.4386H25.6386C25.733 15.4386 25.8345 15.4305 25.9401 15.4144C26.9962 15.2539 26.9631 14.2896 26.9472 13.8263C26.9427 13.6958 26.9385 13.5724 26.9495 13.4903C26.9525 13.4696 26.954 13.4488 26.9541 13.4281Z" fill="white"/>
<path d="M17.079 2.55284C17.2057 2.56198 17.3257 2.57072 17.4255 2.58603C24.4505 3.66637 27.6812 6.99476 28.5765 14.0747C28.5917 14.195 28.5941 14.3418 28.5966 14.4972C28.6055 15.0504 28.6239 16.2011 29.8597 16.2249L29.8981 16.2253C30.2856 16.2253 30.5939 16.1085 30.8144 15.8777C31.1991 15.4753 31.1723 14.8776 31.1506 14.3972C31.1454 14.2793 31.1403 14.1683 31.1416 14.0711C31.2309 6.83019 24.9631 0.264148 17.7287 0.0199751C17.6986 0.0189813 17.67 0.0205714 17.6411 0.0246459C17.6269 0.0267328 17.6006 0.0293167 17.5554 0.0293167C17.4833 0.0293167 17.3945 0.0230558 17.3004 0.0166956C17.1866 0.00894407 17.0577 0 16.9269 0C15.7748 0 15.5557 0.818879 15.5277 1.30703C15.4631 2.43517 16.5545 2.51458 17.079 2.55284Z" fill="white"/>
<path d="M28.2375 23.2253C28.0882 23.1112 27.9337 22.9931 27.7891 22.8766C27.0221 22.2594 26.2061 21.6905 25.417 21.1402C25.2532 21.0261 25.0894 20.9119 24.9262 20.7974C23.9154 20.0874 23.0065 19.7423 22.1479 19.7423C20.9914 19.7423 19.9832 20.3813 19.151 21.6414C18.7823 22.2 18.335 22.4716 17.7837 22.4716C17.4577 22.4716 17.0874 22.3786 16.683 22.195C13.4201 20.7154 11.0902 18.4467 9.7578 15.4522C9.11372 14.0048 9.32252 13.0587 10.456 12.2888C11.0997 11.8519 12.2978 11.0386 12.2129 9.48111C12.1168 7.71247 8.21445 2.39085 6.57023 1.78643C5.87408 1.53043 5.14266 1.52804 4.39235 1.78046C2.50217 2.41589 1.14575 3.53181 0.469378 5.00738C-0.184235 6.43317 -0.154719 8.1073 0.554744 9.84881C2.60572 14.8839 5.48929 19.2739 9.12565 22.8965C12.685 26.4427 17.0597 29.3476 22.1282 31.53C22.5851 31.7266 23.0643 31.8338 23.4142 31.9121C23.5335 31.9389 23.6364 31.9617 23.7114 31.9823C23.7527 31.9935 23.7952 31.9996 23.8379 32L23.8779 32.0002C23.8779 32.0002 23.8779 32.0002 23.8781 32.0002C26.262 32.0002 29.1244 29.8218 30.0035 27.3383C30.7737 25.1637 29.3675 24.0889 28.2375 23.2253Z" fill="white"/>
<path d="M18.1334 8.30458C17.7253 8.31492 16.8759 8.33598 16.5778 9.20107C16.4384 9.60535 16.4551 9.95635 16.6275 10.2444C16.8806 10.6669 17.3653 10.7964 17.8063 10.8675C19.4054 11.124 20.2266 12.0083 20.3909 13.6501C20.4672 14.4156 20.9827 14.9501 21.6446 14.9501C21.6935 14.9501 21.7435 14.9472 21.7933 14.9412C22.5894 14.8465 22.9752 14.2616 22.9404 13.203C22.9531 12.0983 22.3749 10.844 21.3915 9.84495C20.4048 8.84281 19.2154 8.27844 18.1334 8.30458Z" fill="white"/>
</svg>
