<svg width="29" height="32" viewBox="0 0 29 32" fill="none" xmlns="http://www.w3.org/2000/svg">
<path d="M14.0625 0C8.43969 0 3.75 4.52938 3.75 10.3125C3.75 12.5126 4.41113 14.4745 5.67994 16.3129L13.2733 28.1616C13.6417 28.7376 14.4841 28.7365 14.8517 28.1616L22.478 16.2726C23.7195 14.5175 24.375 12.4567 24.375 10.3125C24.375 4.62619 19.7488 0 14.0625 0ZM14.0625 15C11.4779 15 9.375 12.8971 9.375 10.3125C9.375 7.72794 11.4779 5.625 14.0625 5.625C16.6471 5.625 18.75 7.72794 18.75 10.3125C18.75 12.8971 16.6471 15 14.0625 15Z" fill="white"/>
<path d="M21.3915 21.5435L16.6708 28.9239C15.4489 30.829 12.6693 30.8228 11.4533 28.9257L6.72488 21.5454C2.56463 22.5073 0 24.2693 0 26.375C0 30.0289 7.2455 32 14.0625 32C20.8795 32 28.125 30.0289 28.125 26.375C28.125 24.2678 25.5568 22.5048 21.3915 21.5435Z" fill="white"/>
</svg>
