<svg width="32" height="32" viewBox="0 0 32 32" fill="none" xmlns="http://www.w3.org/2000/svg">
<path d="M0 14.021V30.6039L10.6604 22.3125L0 14.021Z" fill="white"/>
<path d="M27.8125 9.70703V14.8055L30.9608 12.3568L27.8125 9.70703Z" fill="white"/>
<path d="M16.5412 0.220172C16.1923 -0.0733907 15.6827 -0.0733907 15.3338 0.220172L12.8479 2.31249H19.0271L16.5412 0.220172Z" fill="white"/>
<path d="M4.0625 9.70703L0.914185 12.3568L4.0625 14.8055V9.70703Z" fill="white"/>
<path d="M12.5091 23.25L1.25912 32H30.6159L19.3659 23.25H12.5091Z" fill="white"/>
<path d="M21.2145 22.3126L31.875 30.6041V14.021L21.2145 22.3126Z" fill="white"/>
<path d="M15.7012 11.2104C14.9408 11.2104 14.1542 11.9498 14.1542 13.1871C14.1542 14.445 14.9214 15.29 15.6381 15.29C16.3927 15.29 17.0115 14.407 17.056 13.2969L17.0572 13.0612C17.0235 11.9659 16.4754 11.2104 15.7012 11.2104Z" fill="white"/>
<path d="M19.3659 21.375L25.9375 16.2637V5.125C25.9375 4.60725 25.5178 4.1875 25 4.1875H6.875C6.35725 4.1875 5.9375 4.60725 5.9375 5.125V16.2638L12.5091 21.375H19.3659ZM9.32863 14.9943C8.88094 13.2921 9.10606 11.4976 9.96263 9.94138C10.8188 8.38575 12.2141 7.235 13.8914 6.70106C15.6609 6.13763 17.5399 6.30363 19.1818 7.16844C20.824 8.03331 22.0238 9.48806 22.5599 11.2648C22.5629 11.2744 22.5656 11.2841 22.5682 11.2939C22.9246 12.6289 22.8191 13.8891 22.2261 15.3801C21.8253 16.3878 20.8426 17.4647 19.2866 17.4647C18.7221 17.4647 18.1808 17.2332 17.7624 16.8128C17.6634 16.7133 17.5743 16.6049 17.4944 16.4901C16.9689 16.9174 16.3318 17.1647 15.6381 17.1647C14.732 17.1647 13.851 16.7248 13.2211 15.9578C12.6137 15.2183 12.2793 14.2343 12.2793 13.1868C12.2793 12.1347 12.6351 11.1611 13.2814 10.4456C13.9186 9.73994 14.8007 9.33519 15.7013 9.33519C16.1966 9.33519 16.6673 9.45325 17.0902 9.67569C17.1722 9.24113 17.5531 8.91281 18.0106 8.91281H18.0153C18.5331 8.91538 18.9508 9.33719 18.9482 9.85494L18.9224 15.0634C18.9216 15.2233 18.9848 15.3828 19.0916 15.4901C19.1285 15.5273 19.203 15.5896 19.2866 15.5896C20.0431 15.5896 20.3759 14.9584 20.4838 14.6871C20.9217 13.586 21.0047 12.7191 20.7604 11.7918C20.3684 10.5064 19.4979 9.454 18.3081 8.82738C17.1141 8.1985 15.7474 8.07794 14.4601 8.48763C11.9227 9.29538 10.4652 11.9439 11.142 14.5173C11.704 16.6543 13.6357 18.1893 15.8395 18.2503C16.357 18.2646 16.7651 18.6958 16.7507 19.2134C16.7366 19.7221 16.3198 20.1249 15.8141 20.1249C15.8053 20.1249 15.7965 20.1248 15.7876 20.1246C14.3348 20.0844 12.9007 19.5683 11.7494 18.6713C10.5533 17.7396 9.71625 16.4681 9.32863 14.9943Z" fill="white"/>
</svg>
