<svg width="499" height="147" viewBox="0 0 499 147" fill="none" xmlns="http://www.w3.org/2000/svg">
<g filter="url(#filter0_d_198_23)">
<path d="M0 0H494.5L460 67H0V0Z" fill="#73448C"/>
<path d="M26.32 23.72C31.76 23.72 33.96 26.44 33.96 31.44V35.88H40.56V28.6H36.68V24.12H49.84V28.6H46.16V49H40.56V40.36H33.96V40.96C33.96 43.2 32.92 44.16 31.16 44.16C28.52 44.16 25.16 40.64 25.16 38.16C25.16 36.96 25.8 35.88 28.36 35.88L28.56 36.2V30.92C28.56 28.56 27.96 27.48 26.36 27.48C25.24 27.48 24.6 28.08 24.6 28.96C24.6 30.04 25.36 30.56 27.08 30.72L26.56 34.36C22.4 34.12 19.8 32.28 19.8 28.92C19.8 25.44 22.44 23.72 26.32 23.72ZM57.93 28.6V49H52.33V28.6H49.25V24.12H61.61V28.6H57.93ZM61.0078 24.12H95.2078V28.6H81.0078C81.5678 29.4 81.8478 30.4 81.8478 31.56C81.8478 33.28 81.1278 34.76 79.8078 35.88C80.1678 36.24 80.5278 36.56 80.8478 36.92C82.3678 35.64 84.1278 34.96 86.4478 34.96C90.7678 34.96 93.4878 37.6 93.4878 41.8C93.4878 44.56 92.3278 47.16 89.5278 49.6L85.0478 46.48C86.7278 45.04 87.8078 43.52 87.8078 41.84C87.8078 40.28 86.9678 39.4 85.5278 39.4C84.4878 39.4 83.4878 39.92 82.8078 40.76C82.8878 41.24 82.9278 41.68 82.9278 42.2C82.9278 46.44 79.6878 49 74.8878 49C69.2078 49 65.3278 46.16 62.0478 36.84L66.5278 34.8C68.8078 41.44 70.9278 44.4 74.0878 44.4C76.0478 44.4 77.2878 43.32 77.2878 41.48C77.2878 40.08 76.7278 38.88 75.5678 37.84C74.4078 38.12 73.1278 38.32 71.6878 38.4L70.8878 34.08C74.6878 33.8 76.2478 33.08 76.2478 31.08C76.2478 30.12 75.8478 29.28 75.0878 28.6H61.0078V24.12ZM105.213 49.92C100.813 45.56 97.9728 42.08 96.6528 39.68C95.7728 38.2 95.4528 37.04 95.4528 36C95.4528 34.32 96.4528 33.16 98.4528 33.16C99.7328 33.16 100.773 33.72 101.733 34.56C102.493 33.68 102.813 32.6 102.813 31.24C102.813 30.28 102.653 29.36 102.333 28.6H94.1328V24.12H124.253V28.6H120.573V49H114.973V39.96C113.893 40.16 112.653 40.28 111.373 40.28C109.173 40.28 106.773 39.84 104.493 38.64C103.893 39.04 103.213 39.44 102.453 39.76C104.293 41.92 106.773 44.24 109.333 46.56L105.213 49.92ZM111.373 35.76C112.613 35.76 113.813 35.64 114.973 35.36V28.6H107.893C108.213 29.56 108.373 30.56 108.373 31.84C108.373 33.2 108.053 34.36 107.533 35.32C108.773 35.64 109.933 35.76 111.373 35.76ZM132.344 28.6V49H126.744V28.6H123.664V24.12H136.024V28.6H132.344ZM149.262 46.96C150.422 46.2 151.102 45.32 151.102 44.36C151.102 43.12 150.062 42.2 147.622 42.2C144.742 42.2 143.182 43.36 143.182 45.28C143.182 47.68 145.862 49.12 151.982 51.16L149.622 55.52C141.502 53.2 137.622 49.92 137.622 45.36C137.622 43.12 138.422 41.44 139.822 40.24C138.302 38.92 137.582 37.48 137.582 35.92C137.582 32.68 140.062 30.92 144.542 30.92H149.462V28.6H135.422V24.12H158.662V28.6H154.982V35.2H145.382C143.782 35.2 143.062 35.76 143.062 36.76C143.062 37.32 143.342 37.84 143.902 38.32C145.102 38.04 146.462 37.88 147.902 37.88C154.062 37.88 156.622 40.8 156.622 44.16C156.622 46.24 155.782 47.96 153.822 49.6L149.262 46.96ZM149.676 24.4C147.836 18.84 146.996 17.72 144.716 17.72C143.756 17.72 142.676 17.96 141.756 18.32L140.356 13.96C141.796 13.4 143.396 13.16 144.956 13.16C149.876 13.16 151.716 15.48 154.476 24.4H149.676ZM183.398 28.6H179.718V49H174.158V44.28C172.558 45.12 170.678 45.56 168.358 45.56C162.878 45.56 159.478 42.72 159.478 38.16C159.478 33.36 162.998 30.88 168.438 30.88C170.158 30.88 171.598 31.04 172.918 31.36L172.478 35.44C171.558 35.24 170.438 35.08 169.158 35.08C169.078 35.08 168.958 35.08 168.838 35.08L172.758 40.04C173.278 39.68 173.758 39.28 174.158 38.88V28.6H158.078V24.12H183.398V28.6ZM164.718 38.32C164.718 40.4 166.238 41.36 168.558 41.36C168.998 41.36 169.438 41.32 169.838 41.24L165.718 36.04C165.078 36.56 164.718 37.32 164.718 38.32ZM204.978 49.92C200.578 45.56 197.738 42.08 196.418 39.68C195.538 38.2 195.218 37.04 195.218 36C195.218 34.32 196.218 33.16 198.218 33.16C199.498 33.16 200.538 33.72 201.498 34.56C202.258 33.68 202.578 32.6 202.578 31.24C202.578 30.28 202.418 29.36 202.098 28.6H193.898V24.12H224.018V28.6H220.338V49H214.738V39.96C213.658 40.16 212.418 40.28 211.138 40.28C208.938 40.28 206.538 39.84 204.258 38.64C203.658 39.04 202.978 39.44 202.218 39.76C204.058 41.92 206.538 44.24 209.098 46.56L204.978 49.92ZM211.138 35.76C212.378 35.76 213.578 35.64 214.738 35.36V28.6H207.658C207.978 29.56 208.138 30.56 208.138 31.84C208.138 33.2 207.818 34.36 207.298 35.32C208.538 35.64 209.698 35.76 211.138 35.76ZM232.11 28.6V49H226.51V28.6H223.43V24.12H226.63C224.87 18.8 223.99 17.72 221.79 17.72C220.79 17.72 219.75 17.96 218.79 18.32L217.39 13.96C218.83 13.4 220.43 13.16 221.99 13.16C226.95 13.16 228.75 15.48 231.43 24.12H235.79V28.6H232.11ZM256.708 28.6V49H251.108V42.28C249.628 42.96 247.908 43.36 246.228 43.36C240.588 43.36 237.827 40.52 237.827 35V28.6H235.188V24.12H260.388V28.6H256.708ZM251.108 28.6H243.388V34.92C243.388 37.76 244.468 38.88 246.628 38.88C248.308 38.88 249.948 37.96 251.108 36.88V28.6ZM268.477 28.6V49H262.877V28.6H259.797V24.12H272.157V28.6H268.477ZM271.555 24.12H296.755V28.6H293.075V49H287.475V38.56H281.555V39.44C281.555 41.8 280.555 42.88 278.755 42.88C276.115 42.88 272.795 39.32 272.795 36.68C272.795 35.12 273.475 34.08 275.915 34.08H287.475V28.6H271.555V24.12ZM312.604 46.32L308.764 49.88C304.444 46.2 301.244 43.04 299.284 40.28C298.004 38.56 297.484 37.28 297.484 35.92C297.484 34.24 298.644 33.16 300.444 33.16C301.804 33.16 302.924 33.72 304.124 34.76C305.404 33.88 305.964 32.72 305.964 31.16C305.964 30.24 305.804 29.36 305.524 28.6H296.164V24.12H314.404V28.6H311.044C311.324 29.52 311.524 30.6 311.524 31.96C311.524 35.88 309.084 38.36 305.164 39.88C307.364 42.04 309.844 44.16 312.604 46.32ZM322.5 28.6V49H316.9V28.6H313.82V24.12H326.18V28.6H322.5ZM350.298 28.6H346.618V49H341.058V44.16C339.618 44.96 337.818 45.44 335.698 45.44C330.418 45.44 326.978 42.84 326.978 38.12C326.978 33.52 330.258 31.04 335.618 31.04C337.258 31.04 338.658 31.2 339.818 31.48L339.378 35.84C338.498 35.64 337.538 35.52 336.418 35.52C334.018 35.52 332.578 36.52 332.578 38.28C332.578 39.92 333.858 40.92 336.018 40.92C338.018 40.92 339.938 39.96 341.058 38.44V28.6H325.578V24.12H350.298V28.6ZM369.093 23.72C374.533 23.72 376.733 26.44 376.733 31.44V35.88H383.333V28.6H379.453V24.12H392.613V28.6H388.933V49H383.333V40.36H376.733V40.96C376.733 43.2 375.693 44.16 373.933 44.16C371.293 44.16 367.933 40.64 367.933 38.16C367.933 36.96 368.573 35.88 371.133 35.88L371.333 36.2V30.92C371.333 28.56 370.733 27.48 369.133 27.48C368.013 27.48 367.373 28.08 367.373 28.96C367.373 30.04 368.133 30.56 369.853 30.72L369.333 34.36C365.173 34.12 362.573 32.28 362.573 28.92C362.573 25.44 365.213 23.72 369.093 23.72ZM400.703 28.6V49H395.103V28.6H392.023V24.12H395.223C393.463 18.8 392.583 17.72 390.383 17.72C389.383 17.72 388.343 17.96 387.383 18.32L385.983 13.96C387.423 13.4 389.023 13.16 390.583 13.16C395.543 13.16 397.343 15.48 400.023 24.12H404.383V28.6H400.703ZM414.661 41.2C413.261 41.2 411.701 41.44 410.261 41.88C407.861 40.6 405.461 38.36 405.461 35.56C405.461 32.6 407.501 30.92 411.701 30.92H416.021V28.6H403.781V24.12H425.221V28.6H421.541V34.72H413.021C411.541 34.72 410.941 35.2 410.941 36.08C410.941 36.68 411.341 37.24 411.861 37.68C413.261 37.4 414.501 37.2 416.181 37.2C421.141 37.2 423.261 39.56 423.261 42.84C423.261 46.56 420.501 48.88 415.101 49C416.421 50.28 417.861 51.52 419.461 52.76L415.461 55.92C413.421 53.72 411.661 51.52 410.101 49.32C406.941 48.92 405.181 47.56 405.181 45.6C405.181 44 406.301 43.08 408.061 43.08C409.261 43.08 410.501 43.68 411.701 45.04C412.181 45.04 412.581 45.04 412.941 45.04C416.101 45.04 417.621 44.4 417.621 42.84C417.621 41.76 416.861 41.2 414.661 41.2ZM415.639 24.4C414.119 22.92 413.119 21.04 413.119 18.92C413.119 15.08 415.999 13.16 420.239 13.16C421.999 13.16 423.719 13.48 424.879 14.04L423.879 17.68C422.999 17.36 422.279 17.2 421.399 17.2C419.519 17.2 418.479 18.24 418.479 19.96C418.479 21.52 419.319 23.08 420.799 24.4H415.639ZM441.081 46.32L437.241 49.88C432.921 46.2 429.721 43.04 427.761 40.28C426.481 38.56 425.961 37.28 425.961 35.92C425.961 34.24 427.121 33.16 428.921 33.16C430.281 33.16 431.401 33.72 432.601 34.76C433.881 33.88 434.441 32.72 434.441 31.16C434.441 30.24 434.281 29.36 434.001 28.6H424.641V24.12H442.881V28.6H439.521C439.801 29.52 440.001 30.6 440.001 31.96C440.001 35.88 437.561 38.36 433.641 39.88C435.841 42.04 438.321 44.16 441.081 46.32Z" fill="white"/>
<path d="M0 67H439L404 139H0V67Z" fill="#FFE100"/>
<path d="M21 79.048H30.008V80.184H27.896C28.328 80.6 28.536 81.144 28.536 81.768C28.536 82.536 28.216 83.16 27.608 83.624C28.568 84.472 28.984 85.32 28.984 86.312C28.984 88.008 27.784 89 26.088 89C23.96 89 22.664 87.752 21.464 84.072L22.632 83.592C23.624 86.696 24.488 87.816 25.928 87.816C26.92 87.816 27.624 87.288 27.624 86.232C27.624 85.368 27.24 84.712 26.504 84.168C26.024 84.328 25.464 84.424 24.808 84.472L24.552 83.304C26.456 83.128 27.24 82.744 27.24 81.672C27.24 81.048 26.904 80.52 26.376 80.184H21V79.048ZM37.4296 80.184V89H36.1336V85.784C35.6056 86.168 34.8536 86.424 34.0216 86.424C32.1176 86.424 31.0296 85.368 31.0296 83.24V80.184H29.7656V79.048H39.0936V80.184H37.4296ZM36.1336 80.184H32.3256V83.288C32.3256 84.664 32.9176 85.288 33.9896 85.288C34.8056 85.288 35.5896 84.84 36.1336 84.264V80.184ZM41.5794 80.184V89H40.2834V80.184H38.8594V79.048H43.2274V80.184H41.5794ZM47.64 87.368C45.816 87.368 44.568 86.392 44.568 84.952C44.568 84.408 44.76 83.848 45.256 83.432C44.408 82.904 43.8 82.136 43.8 81.064C43.8 79.704 44.712 78.888 46.184 78.888C47.624 78.888 48.264 79.688 48.264 80.664C48.264 81.224 48.04 81.704 47.56 82.152L46.6 81.576C46.888 81.288 47.032 80.984 47.032 80.68C47.032 80.2 46.744 79.912 46.184 79.912C45.496 79.912 45.048 80.392 45.048 81.16C45.048 81.912 45.48 82.456 46.28 82.856C46.648 82.744 47.064 82.712 47.496 82.712C47.8 82.712 48.12 82.744 48.36 82.792L48.232 83.912C48.024 83.88 47.816 83.864 47.528 83.864C46.424 83.864 45.848 84.264 45.848 85.016C45.848 85.832 46.632 86.248 47.624 86.248C48.872 86.248 49.688 85.688 50.264 84.968L50.872 85.912C50.216 86.792 49.064 87.368 47.64 87.368ZM58.5196 79.048V80.184H56.8716V89H55.5756V86.232C55.0156 86.616 54.3276 86.888 53.3356 86.888C51.2716 86.888 50.1036 85.704 49.5436 83.272C51.1916 82.968 51.8636 82.52 51.8636 81.656C51.8636 81.096 51.5916 80.584 51.1596 80.184H49.0156V79.048H58.5196ZM51.1436 84.088C51.5276 85.192 52.1356 85.752 53.3196 85.752C54.3116 85.752 55.0316 85.24 55.5756 84.648V80.184H52.5516C52.9516 80.696 53.1436 81.256 53.1436 81.8C53.1436 82.936 52.5196 83.64 51.1436 84.088ZM68.3449 80.184V89H67.0489V83.896C66.4729 84.136 65.8169 84.28 64.8409 84.28C63.9289 84.28 63.0329 84.088 62.2649 83.736C60.9049 84.488 60.4249 84.888 60.4249 85.848C60.4249 86.824 61.1449 87.352 62.3289 87.352C62.5529 87.352 62.7289 87.336 62.8889 87.288C62.8249 87.112 62.7929 86.904 62.7929 86.696C62.7929 86.088 63.2089 85.736 63.8169 85.736C64.6489 85.736 65.1609 86.376 65.1609 86.984C65.1609 87.432 64.8249 87.832 64.3129 88.072C64.6009 88.664 64.9049 89.128 65.3369 89.8L64.1689 90.36C63.8009 89.672 63.4809 89 63.2729 88.408C63.0169 88.44 62.7129 88.472 62.4249 88.472C60.6649 88.472 59.1129 87.56 59.1129 85.864C59.1129 84.68 59.6729 84.024 61.2249 83.16C60.2489 82.52 59.7369 81.848 59.7369 80.888C59.7369 79.752 60.5849 78.888 62.2169 78.888C63.6729 78.888 64.6489 79.576 64.6489 80.92C64.6489 81.848 64.1689 82.472 63.3529 83.016C63.8009 83.128 64.2009 83.176 64.7129 83.176C65.5609 83.176 66.3769 82.984 67.0489 82.568V80.184H65.7369V79.048H69.9929V80.184H68.3449ZM60.9689 80.968C60.9689 81.672 61.5129 82.168 62.2329 82.568C63.0329 82.056 63.4169 81.544 63.4169 80.952C63.4169 80.36 63.0969 79.928 62.1849 79.928C61.4489 79.928 60.9689 80.312 60.9689 80.968ZM71.5896 82.632C71.291 82.632 71.035 82.5307 70.8216 82.328C70.6083 82.1147 70.5016 81.848 70.5016 81.528C70.5016 81.208 70.6083 80.9467 70.8216 80.744C71.035 80.5413 71.291 80.44 71.5896 80.44C71.8776 80.44 72.123 80.5413 72.3256 80.744C72.539 80.9467 72.6456 81.208 72.6456 81.528C72.6456 81.848 72.539 82.1147 72.3256 82.328C72.123 82.5307 71.8776 82.632 71.5896 82.632ZM71.5896 89.096C71.291 89.096 71.035 88.9947 70.8216 88.792C70.6083 88.5787 70.5016 88.312 70.5016 87.992C70.5016 87.672 70.6083 87.4107 70.8216 87.208C71.035 87.0053 71.291 86.904 71.5896 86.904C71.8776 86.904 72.123 87.0053 72.3256 87.208C72.539 87.4107 72.6456 87.672 72.6456 87.992C72.6456 88.312 72.539 88.5787 72.3256 88.792C72.123 88.9947 71.8776 89.096 71.5896 89.096ZM85.2875 85.544C85.2875 87.112 84.1355 88.008 82.5675 88.008C80.6635 88.008 79.3835 86.888 78.1515 83.496L79.2875 83.032C80.1515 85.528 81.0635 86.84 82.4555 86.84C83.3995 86.84 84.0235 86.312 84.0235 85.4C84.0235 84.664 83.5275 84.088 82.9035 83.64C82.5035 83.752 82.0235 83.832 81.4795 83.88L81.2235 82.744C83.2235 82.488 83.7515 82.056 83.7515 81.176C83.7515 80.472 83.2875 80.024 82.4235 80.024C81.7035 80.024 81.0155 80.248 80.3275 80.664L79.9115 79.544C80.6475 79.128 81.4795 78.888 82.4715 78.888C84.2955 78.888 85.0315 79.96 85.0315 81.192C85.0315 82.024 84.7275 82.696 84.0075 83.16L84.0395 83.192C84.5515 83.32 85.1115 83.368 85.6075 83.368C86.1035 83.368 86.6315 83.32 87.1915 83.176V80.184H86.0235V79.048H90.1515V80.184H88.4875V89H87.1915V84.36C86.7595 84.472 86.3115 84.504 85.8635 84.504C85.6075 84.504 85.3035 84.488 84.9995 84.44C85.1915 84.776 85.2875 85.16 85.2875 85.544ZM91.7303 89.096C91.4316 89.096 91.1756 88.9947 90.9622 88.792C90.7489 88.5787 90.6423 88.312 90.6423 87.992C90.6423 87.672 90.7489 87.4107 90.9622 87.208C91.1756 87.0053 91.4316 86.904 91.7303 86.904C92.0183 86.904 92.2636 87.0053 92.4663 87.208C92.6796 87.4107 92.7863 87.672 92.7863 87.992C92.7863 88.312 92.6796 88.5787 92.4663 88.792C92.2636 88.9947 92.0183 89.096 91.7303 89.096ZM100.66 78.888C102.516 78.888 103.14 80.056 103.14 81.592V83.864H106.356V80.184H104.26V79.048H109.3V80.184H107.652V89H106.356V85H103.14V85.592C103.14 86.296 102.772 86.584 102.356 86.584C101.54 86.584 100.452 85.368 100.452 84.552C100.452 84.168 100.708 83.864 101.412 83.864H101.876V81.752C101.876 80.552 101.556 79.928 100.708 79.928C100.116 79.928 99.7801 80.264 99.7801 80.76C99.7801 81.368 100.228 81.672 101.172 81.784L101.044 82.824C99.6041 82.728 98.5641 81.992 98.5641 80.728C98.5641 79.512 99.4441 78.888 100.66 78.888ZM111.798 80.184V89H110.502V80.184H109.078V79.048H113.446V80.184H111.798ZM115.043 89.096C114.744 89.096 114.488 88.9947 114.275 88.792C114.061 88.5787 113.955 88.312 113.955 87.992C113.955 87.672 114.061 87.4107 114.275 87.208C114.488 87.0053 114.744 86.904 115.043 86.904C115.331 86.904 115.576 87.0053 115.779 87.208C115.992 87.4107 116.099 87.672 116.099 87.992C116.099 88.312 115.992 88.5787 115.779 88.792C115.576 88.9947 115.331 89.096 115.043 89.096ZM129.285 80.184V89H127.989V85H124.453V85.592C124.453 86.296 124.085 86.584 123.685 86.584C122.869 86.584 121.765 85.368 121.765 84.552C121.765 84.168 122.021 83.864 122.741 83.864H123.157V80.184H121.141V79.048H130.933V80.184H129.285ZM127.989 80.184H124.453V83.864H127.989V80.184ZM132.527 89.096C132.228 89.096 131.972 88.9947 131.759 88.792C131.546 88.5787 131.439 88.312 131.439 87.992C131.439 87.672 131.546 87.4107 131.759 87.208C131.972 87.0053 132.228 86.904 132.527 86.904C132.815 86.904 133.06 87.0053 133.263 87.208C133.476 87.4107 133.583 87.672 133.583 87.992C133.583 88.312 133.476 88.5787 133.263 88.792C133.06 88.9947 132.815 89.096 132.527 89.096ZM138.625 79.048H147.729V80.184H146.081V89H144.785V84.232H141.889V85.096C141.889 85.688 141.569 85.992 141.073 85.992C140.289 85.992 139.217 84.808 139.217 83.912C139.217 83.432 139.473 83.096 140.193 83.096H144.785V80.184H138.625V79.048ZM150.22 80.184V89H148.924V80.184H147.5V79.048H151.868V80.184H150.22ZM165.145 89V87.576C164.585 87.88 163.865 88.104 163.065 88.104C161.385 88.104 160.025 87.128 159.689 85.128C161.241 84.84 162.057 84.568 162.057 83.992C162.057 83.304 161.305 83.272 160.249 83.272H156.713C154.745 83.272 153.657 83.928 153.657 85.528C153.657 87.032 154.777 87.816 156.169 87.816C157.161 87.816 157.913 87.496 158.841 86.84L159.385 87.88C158.537 88.584 157.529 89 156.153 89C153.945 89 152.377 87.672 152.377 85.512C152.377 83.272 153.865 82.152 156.537 82.152H156.745V80.184H151.641V79.048H168.105V80.184H166.441V89H165.145ZM163.337 84.04C163.337 85 162.697 85.448 161.241 85.928C161.673 86.744 162.249 86.952 163.161 86.952C163.977 86.952 164.633 86.648 165.145 86.232V80.184H158.041V82.136H160.537C162.361 82.136 163.337 82.68 163.337 84.04ZM179.836 80.184V89H178.54V85.784C178.012 86.168 177.26 86.424 176.428 86.424C174.524 86.424 173.436 85.368 173.436 83.24V80.184H172.172V79.048H181.5V80.184H179.836ZM178.54 80.184H174.732V83.288C174.732 84.664 175.324 85.288 176.396 85.288C177.212 85.288 177.996 84.84 178.54 84.264V80.184ZM183.986 80.184V89H182.69V80.184H181.266V79.048H182.578C182.29 78.472 182.114 77.896 182.114 77.24C182.114 75.704 183.25 74.664 184.994 74.664C187.33 74.664 188.962 76.2 190.178 79.16H188.85C187.858 76.888 186.626 75.8 185.17 75.8C184.082 75.8 183.41 76.424 183.41 77.432C183.41 78.088 183.65 78.584 183.89 79.048H185.634V80.184H183.986ZM191.438 88.328L190.51 89.192C188.83 87.672 187.646 86.44 186.814 85.256C186.286 84.504 186.078 83.992 186.078 83.512C186.078 83.016 186.382 82.696 186.926 82.696C187.39 82.696 187.822 82.968 188.238 83.448C189.118 83.032 189.502 82.376 189.502 81.512C189.502 81.032 189.39 80.504 189.23 80.184H185.406V79.048H192.19V80.184H190.558C190.718 80.632 190.782 81.096 190.782 81.672C190.782 83.4 189.678 84.328 188.03 85.032C188.91 86.072 190.174 87.256 191.438 88.328ZM199.777 80.184V89H198.481V85.912C197.921 86.296 197.105 86.552 196.209 86.552C194.305 86.552 193.217 85.496 193.217 83.368V80.184H191.953V79.048H201.425V80.184H199.777ZM198.481 80.184H195.249L198.481 84.232V80.184ZM194.513 83.416C194.513 84.792 195.105 85.416 196.177 85.416C196.801 85.416 197.313 85.24 197.761 84.968L194.513 80.904V83.416ZM207.827 90.024C207.411 89.24 207.091 88.392 206.883 87.704C206.595 87.768 206.291 87.8 205.891 87.8C204.003 87.8 202.051 86.888 202.051 84.6C202.051 82.664 203.411 81.72 205.987 81.72H206.867V80.184H201.203V79.048H209.859V80.184H208.163V82.84H206.179C204.307 82.84 203.347 83.416 203.347 84.664C203.347 85.928 204.339 86.632 205.875 86.632C206.067 86.632 206.275 86.616 206.499 86.584C206.419 86.344 206.387 86.104 206.387 85.88C206.387 85.256 206.787 84.872 207.475 84.872C208.259 84.872 208.835 85.48 208.835 86.136C208.835 86.664 208.515 87.096 207.955 87.384C208.227 88.056 208.547 88.664 209.043 89.48L207.827 90.024ZM222.144 80.184V89H220.848V85H217.312V85.592C217.312 86.296 216.944 86.584 216.544 86.584C215.728 86.584 214.624 85.368 214.624 84.552C214.624 84.168 214.88 83.864 215.6 83.864H216.016V80.184H214V79.048H223.792V80.184H222.144ZM220.848 80.184H217.312V83.864H220.848V80.184ZM228.203 87.368C226.379 87.368 225.131 86.392 225.131 84.952C225.131 84.408 225.323 83.848 225.819 83.432C224.971 82.904 224.363 82.136 224.363 81.064C224.363 79.704 225.275 78.888 226.747 78.888C228.187 78.888 228.827 79.688 228.827 80.664C228.827 81.224 228.603 81.704 228.123 82.152L227.163 81.576C227.451 81.288 227.595 80.984 227.595 80.68C227.595 80.2 227.307 79.912 226.747 79.912C226.059 79.912 225.611 80.392 225.611 81.16C225.611 81.912 226.043 82.456 226.843 82.856C227.211 82.744 227.627 82.712 228.059 82.712C228.363 82.712 228.683 82.744 228.923 82.792L228.795 83.912C228.587 83.88 228.379 83.864 228.091 83.864C226.987 83.864 226.411 84.264 226.411 85.016C226.411 85.832 227.195 86.248 228.187 86.248C229.435 86.248 230.251 85.688 230.827 84.968L231.435 85.912C230.779 86.792 229.627 87.368 228.203 87.368ZM239.082 79.048V80.184H237.434V89H236.138V86.232C235.578 86.616 234.89 86.888 233.898 86.888C231.834 86.888 230.666 85.704 230.106 83.272C231.754 82.968 232.426 82.52 232.426 81.656C232.426 81.096 232.154 80.584 231.722 80.184H229.578V79.048H239.082ZM231.706 84.088C232.09 85.192 232.698 85.752 233.882 85.752C234.874 85.752 235.594 85.24 236.138 84.648V80.184H233.114C233.514 80.696 233.706 81.256 233.706 81.8C233.706 82.936 233.082 83.64 231.706 84.088ZM247.979 80.184H246.331V89H245.051V86.472C244.443 86.92 243.643 87.16 242.715 87.16C240.955 87.16 239.595 86.152 239.595 84.376C239.595 82.472 240.971 81.576 242.907 81.576C243.499 81.576 244.027 81.64 244.475 81.752L244.395 82.904C243.947 82.808 243.499 82.744 242.955 82.744C241.755 82.744 240.891 83.32 240.891 84.408C240.891 85.368 241.515 86.008 242.715 86.008C243.659 86.008 244.491 85.576 245.051 84.904V80.184H238.859V79.048H247.979V80.184ZM255.446 80.184V89H254.15V83.752H251.926C250.582 83.752 249.766 84.168 249.766 85.304C249.766 86.344 250.438 87.192 251.718 88.408L250.806 89.224C249.302 87.768 248.47 86.568 248.47 85.144C248.47 83.416 249.734 82.616 251.702 82.616H254.15V80.184H247.75V79.048H257.094V80.184H255.446ZM259.595 80.184V89H258.299V80.184H256.875V79.048H258.267C257.787 76.856 257.051 75.8 255.963 75.8C255.051 75.8 254.651 76.344 254.651 77.224C254.651 77.848 254.875 78.472 255.195 79.16H253.915C253.547 78.408 253.355 77.656 253.355 76.984C253.355 75.624 254.235 74.664 255.755 74.664C256.795 74.664 257.547 75.016 258.123 75.72C258.459 74.984 259.259 74.664 260.123 74.664C260.763 74.664 261.291 74.824 261.675 75.048L261.339 76.056C260.939 75.88 260.587 75.768 260.139 75.768C259.419 75.768 258.843 76.232 258.971 77.272C259.179 77.816 259.339 78.44 259.467 79.048H261.243V80.184H259.595ZM267.377 86.232C266.417 86.232 265.761 85.752 265.761 85.016C265.761 84.408 266.193 84.056 266.817 84.056C267.345 84.056 267.745 84.28 268.209 84.792C269.489 84.376 270.353 83.352 270.353 81.784C270.353 80.584 269.809 79.944 268.849 79.944C268.113 79.944 267.697 80.36 267.697 80.92C267.697 81.672 268.369 81.992 269.473 82.072L269.281 83.112C267.601 82.984 266.513 82.248 266.513 80.856C266.513 79.656 267.345 78.888 268.817 78.888C270.529 78.888 271.617 80.008 271.617 81.88C271.617 83.784 270.561 85.112 269.009 85.768C269.857 86.584 270.609 87.496 271.265 88.392L270.161 89.096C269.249 87.816 268.513 86.888 267.889 86.184C267.713 86.216 267.569 86.232 267.377 86.232ZM274.769 80.184V89H273.473V80.184H272.049V79.048H276.417V80.184H274.769ZM278.908 80.184V89H277.612V80.184H276.188V79.048H280.556V80.184H278.908ZM291.992 80.184V89H290.696V88.28C289.928 88.696 288.984 88.888 287.816 88.888C285.24 88.888 283.432 87.736 282.248 86.248C281.432 85.224 281 84.328 281 83.56C281 83 281.336 82.696 281.864 82.696C282.328 82.696 282.712 82.952 283.16 83.464C283.656 83.064 283.8 82.344 283.8 81.672C283.8 81.128 283.736 80.6 283.544 80.184H280.328V79.048H293.64V80.184H291.992ZM288.872 85.24C289.608 85.24 290.248 84.936 290.696 84.52V80.184H284.824C285 80.568 285.096 81.064 285.096 81.672C285.096 83.416 284.296 84.392 282.872 85.112C283.992 86.792 285.672 87.736 287.832 87.736C288.92 87.736 289.864 87.528 290.696 87.096V85.896C290.216 86.168 289.64 86.328 288.888 86.328C287.128 86.328 286.024 85.368 286.024 83.848C286.024 82.328 287.08 81.432 288.872 81.432C289.352 81.432 289.8 81.48 290.184 81.592L290.088 82.68C289.72 82.584 289.352 82.536 288.968 82.536C287.928 82.536 287.32 83 287.32 83.912C287.32 84.84 287.992 85.24 288.872 85.24ZM296.142 80.184V89H294.846V80.184H293.422V79.048H297.79V80.184H296.142ZM298.411 91.368L299.211 88.136L299.419 89.064C299.109 89.064 298.848 88.968 298.635 88.776C298.432 88.584 298.331 88.3227 298.331 87.992C298.331 87.672 298.432 87.4107 298.635 87.208C298.848 87.0053 299.104 86.904 299.403 86.904C299.712 86.904 299.963 87.0107 300.155 87.224C300.347 87.4267 300.443 87.6827 300.443 87.992C300.443 88.0987 300.432 88.2053 300.411 88.312C300.4 88.408 300.373 88.5253 300.331 88.664C300.299 88.792 300.245 88.952 300.171 89.144L299.419 91.368H298.411ZM313.628 80.184V89H312.332V85H308.796V85.592C308.796 86.296 308.428 86.584 308.028 86.584C307.212 86.584 306.108 85.368 306.108 84.552C306.108 84.168 306.364 83.864 307.084 83.864H307.5V80.184H305.484V79.048H315.276V80.184H313.628ZM312.332 80.184H308.796V83.864H312.332V80.184ZM312.455 93.288C310.583 93.288 309.159 92.376 307.751 90.76L308.695 89.912C309.959 91.464 311.031 92.136 312.407 92.136C313.543 92.136 314.103 91.704 314.103 90.952C314.103 90.344 313.751 89.912 312.999 89.912C312.391 89.912 311.879 90.184 311.383 90.648L310.663 89.768C311.271 89.16 311.991 88.824 313.015 88.824C314.487 88.824 315.303 89.768 315.303 91.064C315.303 92.456 314.295 93.288 312.455 93.288ZM312.087 76.648C312.087 76.136 312.487 75.72 312.967 75.72C313.447 75.72 313.847 76.136 313.847 76.648C313.847 77.16 313.447 77.576 312.967 77.576C312.487 77.576 312.087 77.16 312.087 76.648ZM324.407 80.184H322.759V89H321.463V86.552C320.823 86.968 320.055 87.192 319.047 87.192C317.031 87.192 315.783 86.088 315.783 84.392C315.783 82.44 317.223 81.512 319.271 81.512C319.911 81.512 320.439 81.56 320.903 81.672L320.807 82.776C320.343 82.664 319.863 82.616 319.367 82.616C319.127 82.616 318.887 82.632 318.679 82.664L320.919 85.528C321.127 85.384 321.303 85.24 321.463 85.08V80.184H315.047V79.048H324.407V80.184ZM317.079 84.392C317.079 85.544 317.895 86.104 319.095 86.104C319.415 86.104 319.719 86.056 320.007 85.96L317.703 83.048C317.303 83.336 317.079 83.784 317.079 84.392ZM328.524 85.448C327.9 85.448 327.244 85.608 326.716 85.816C325.804 85.256 324.988 84.408 324.988 83.368C324.988 82.184 325.756 81.56 327.372 81.56H329.356V80.184H324.188V79.048H332.267V80.184H330.652V82.696H327.484C326.62 82.696 326.268 82.984 326.268 83.496C326.268 83.928 326.572 84.296 326.956 84.584C327.484 84.392 328.044 84.296 328.716 84.296C330.428 84.296 331.34 85.192 331.34 86.536C331.34 88.184 330.028 88.952 327.98 89C328.54 89.592 329.164 90.168 329.82 90.744L328.7 91.576C327.9 90.728 327.196 89.848 326.572 88.936C325.532 88.808 324.86 88.392 324.86 87.688C324.86 87.192 325.196 86.888 325.724 86.888C326.236 86.888 326.636 87.176 327.1 87.896C327.308 87.912 327.5 87.912 327.628 87.912C328.988 87.912 330.044 87.624 330.044 86.536C330.044 85.848 329.612 85.448 328.524 85.448ZM329.166 79.16C328.654 78.584 328.206 77.72 328.206 76.84C328.206 75.368 329.214 74.664 330.606 74.664C331.278 74.664 331.838 74.808 332.254 75.048L331.918 76.024C331.534 75.88 331.198 75.768 330.766 75.768C329.934 75.768 329.486 76.248 329.486 77.032C329.486 77.752 329.854 78.44 330.478 79.16H329.166ZM28.6 105.544C28.6 107.112 27.448 108.008 25.88 108.008C23.976 108.008 22.696 106.888 21.464 103.496L22.6 103.032C23.464 105.528 24.376 106.84 25.768 106.84C26.712 106.84 27.336 106.312 27.336 105.4C27.336 104.664 26.84 104.088 26.216 103.64C25.816 103.752 25.336 103.832 24.792 103.88L24.536 102.744C26.536 102.488 27.064 102.056 27.064 101.176C27.064 100.472 26.6 100.024 25.736 100.024C25.016 100.024 24.328 100.248 23.64 100.664L23.224 99.544C23.96 99.128 24.792 98.888 25.784 98.888C27.608 98.888 28.344 99.96 28.344 101.192C28.344 102.024 28.04 102.696 27.32 103.16L27.352 103.192C27.864 103.32 28.424 103.368 28.92 103.368C29.416 103.368 29.944 103.32 30.504 103.176V100.184H29.336V99.048H33.464V100.184H31.8V109H30.504V104.36C30.072 104.472 29.624 104.504 29.176 104.504C28.92 104.504 28.616 104.488 28.312 104.44C28.504 104.776 28.6 105.16 28.6 105.544ZM37.8588 107.368C36.0348 107.368 34.7868 106.392 34.7868 104.952C34.7868 104.408 34.9788 103.848 35.4748 103.432C34.6268 102.904 34.0188 102.136 34.0188 101.064C34.0188 99.704 34.9308 98.888 36.4028 98.888C37.8428 98.888 38.4828 99.688 38.4828 100.664C38.4828 101.224 38.2588 101.704 37.7788 102.152L36.8188 101.576C37.1068 101.288 37.2508 100.984 37.2508 100.68C37.2508 100.2 36.9628 99.912 36.4028 99.912C35.7148 99.912 35.2668 100.392 35.2668 101.16C35.2668 101.912 35.6988 102.456 36.4988 102.856C36.8668 102.744 37.2828 102.712 37.7148 102.712C38.0188 102.712 38.3388 102.744 38.5788 102.792L38.4508 103.912C38.2428 103.88 38.0348 103.864 37.7468 103.864C36.6428 103.864 36.0668 104.264 36.0668 105.016C36.0668 105.832 36.8508 106.248 37.8428 106.248C39.0908 106.248 39.9068 105.688 40.4828 104.968L41.0908 105.912C40.4348 106.792 39.2828 107.368 37.8588 107.368ZM48.7384 99.048V100.184H47.0904V109H45.7944V106.232C45.2344 106.616 44.5464 106.888 43.5544 106.888C41.4904 106.888 40.3224 105.704 39.7624 103.272C41.4104 102.968 42.0824 102.52 42.0824 101.656C42.0824 101.096 41.8104 100.584 41.3784 100.184H39.2344V99.048H48.7384ZM41.3624 104.088C41.7464 105.192 42.3544 105.752 43.5384 105.752C44.5304 105.752 45.2504 105.24 45.7944 104.648V100.184H42.7704C43.1704 100.696 43.3624 101.256 43.3624 101.8C43.3624 102.936 42.7384 103.64 41.3624 104.088ZM58.5636 100.184V109H57.2676V103.896C56.6916 104.136 56.0356 104.28 55.0596 104.28C54.1476 104.28 53.2516 104.088 52.4836 103.736C51.1236 104.488 50.6436 104.888 50.6436 105.848C50.6436 106.824 51.3636 107.352 52.5476 107.352C52.7716 107.352 52.9476 107.336 53.1076 107.288C53.0436 107.112 53.0116 106.904 53.0116 106.696C53.0116 106.088 53.4276 105.736 54.0356 105.736C54.8676 105.736 55.3796 106.376 55.3796 106.984C55.3796 107.432 55.0436 107.832 54.5316 108.072C54.8196 108.664 55.1236 109.128 55.5556 109.8L54.3876 110.36C54.0196 109.672 53.6996 109 53.4916 108.408C53.2356 108.44 52.9316 108.472 52.6436 108.472C50.8836 108.472 49.3316 107.56 49.3316 105.864C49.3316 104.68 49.8916 104.024 51.4436 103.16C50.4676 102.52 49.9556 101.848 49.9556 100.888C49.9556 99.752 50.8036 98.888 52.4356 98.888C53.8916 98.888 54.8676 99.576 54.8676 100.92C54.8676 101.848 54.3876 102.472 53.5716 103.016C54.0196 103.128 54.4196 103.176 54.9316 103.176C55.7796 103.176 56.5956 102.984 57.2676 102.568V100.184H55.9556V99.048H60.2116V100.184H58.5636ZM51.1876 100.968C51.1876 101.672 51.7316 102.168 52.4516 102.568C53.2516 102.056 53.6356 101.544 53.6356 100.952C53.6356 100.36 53.3156 99.928 52.4036 99.928C51.6676 99.928 51.1876 100.312 51.1876 100.968ZM61.8084 102.632C61.5097 102.632 61.2537 102.531 61.0404 102.328C60.827 102.115 60.7204 101.848 60.7204 101.528C60.7204 101.208 60.827 100.947 61.0404 100.744C61.2537 100.541 61.5097 100.44 61.8084 100.44C62.0964 100.44 62.3417 100.541 62.5444 100.744C62.7577 100.947 62.8644 101.208 62.8644 101.528C62.8644 101.848 62.7577 102.115 62.5444 102.328C62.3417 102.531 62.0964 102.632 61.8084 102.632ZM61.8084 109.096C61.5097 109.096 61.2537 108.995 61.0404 108.792C60.827 108.579 60.7204 108.312 60.7204 107.992C60.7204 107.672 60.827 107.411 61.0404 107.208C61.2537 107.005 61.5097 106.904 61.8084 106.904C62.0964 106.904 62.3417 107.005 62.5444 107.208C62.7577 107.411 62.8644 107.672 62.8644 107.992C62.8644 108.312 62.7577 108.579 62.5444 108.792C62.3417 108.995 62.0964 109.096 61.8084 109.096ZM75.5063 105.544C75.5063 107.112 74.3543 108.008 72.7863 108.008C70.8823 108.008 69.6023 106.888 68.3703 103.496L69.5063 103.032C70.3703 105.528 71.2823 106.84 72.6743 106.84C73.6183 106.84 74.2423 106.312 74.2423 105.4C74.2423 104.664 73.7463 104.088 73.1223 103.64C72.7223 103.752 72.2423 103.832 71.6983 103.88L71.4423 102.744C73.4423 102.488 73.9703 102.056 73.9703 101.176C73.9703 100.472 73.5063 100.024 72.6423 100.024C71.9223 100.024 71.2343 100.248 70.5463 100.664L70.1303 99.544C70.8663 99.128 71.6983 98.888 72.6903 98.888C74.5143 98.888 75.2503 99.96 75.2503 101.192C75.2503 102.024 74.9463 102.696 74.2263 103.16L74.2583 103.192C74.7703 103.32 75.3303 103.368 75.8263 103.368C76.3223 103.368 76.8503 103.32 77.4103 103.176V100.184H76.2423V99.048H80.3703V100.184H78.7063V109H77.4103V104.36C76.9783 104.472 76.5303 104.504 76.0823 104.504C75.8263 104.504 75.5223 104.488 75.2183 104.44C75.4103 104.776 75.5063 105.16 75.5063 105.544ZM81.949 109.096C81.6503 109.096 81.3943 108.995 81.181 108.792C80.9677 108.579 80.861 108.312 80.861 107.992C80.861 107.672 80.9677 107.411 81.181 107.208C81.3943 107.005 81.6503 106.904 81.949 106.904C82.237 106.904 82.4823 107.005 82.685 107.208C82.8983 107.411 83.005 107.672 83.005 107.992C83.005 108.312 82.8983 108.579 82.685 108.792C82.4823 108.995 82.237 109.096 81.949 109.096ZM90.8789 98.888C92.7349 98.888 93.3589 100.056 93.3589 101.592V103.864H96.5749V100.184H94.4789V99.048H99.5189V100.184H97.8709V109H96.5749V105H93.3589V105.592C93.3589 106.296 92.9909 106.584 92.5749 106.584C91.7589 106.584 90.6709 105.368 90.6709 104.552C90.6709 104.168 90.9269 103.864 91.6309 103.864H92.0949V101.752C92.0949 100.552 91.7749 99.928 90.9269 99.928C90.3349 99.928 89.9989 100.264 89.9989 100.76C89.9989 101.368 90.4469 101.672 91.3909 101.784L91.2629 102.824C89.8229 102.728 88.7829 101.992 88.7829 100.728C88.7829 99.512 89.6629 98.888 90.8789 98.888ZM102.017 100.184V109H100.721V100.184H99.2969V99.048H103.665V100.184H102.017ZM105.262 109.096C104.963 109.096 104.707 108.995 104.493 108.792C104.28 108.579 104.174 108.312 104.174 107.992C104.174 107.672 104.28 107.411 104.493 107.208C104.707 107.005 104.963 106.904 105.262 106.904C105.55 106.904 105.795 107.005 105.998 107.208C106.211 107.411 106.318 107.672 106.318 107.992C106.318 108.312 106.211 108.579 105.998 108.792C105.795 108.995 105.55 109.096 105.262 109.096ZM119.503 100.184V109H118.207V105H114.671V105.592C114.671 106.296 114.303 106.584 113.903 106.584C113.087 106.584 111.983 105.368 111.983 104.552C111.983 104.168 112.239 103.864 112.959 103.864H113.375V100.184H111.359V99.048H121.151V100.184H119.503ZM118.207 100.184H114.671V103.864H118.207V100.184ZM122.746 109.096C122.447 109.096 122.191 108.995 121.978 108.792C121.765 108.579 121.658 108.312 121.658 107.992C121.658 107.672 121.765 107.411 121.978 107.208C122.191 107.005 122.447 106.904 122.746 106.904C123.034 106.904 123.279 107.005 123.482 107.208C123.695 107.411 123.802 107.672 123.802 107.992C123.802 108.312 123.695 108.579 123.482 108.792C123.279 108.995 123.034 109.096 122.746 109.096ZM128.844 99.048H137.948V100.184H136.3V109H135.004V104.232H132.108V105.096C132.108 105.688 131.788 105.992 131.292 105.992C130.508 105.992 129.436 104.808 129.436 103.912C129.436 103.432 129.692 103.096 130.412 103.096H135.004V100.184H128.844V99.048ZM140.439 100.184V109H139.143V100.184H137.719V99.048H142.087V100.184H140.439ZM155.363 109V107.576C154.803 107.88 154.083 108.104 153.283 108.104C151.603 108.104 150.243 107.128 149.907 105.128C151.459 104.84 152.275 104.568 152.275 103.992C152.275 103.304 151.523 103.272 150.467 103.272H146.931C144.963 103.272 143.875 103.928 143.875 105.528C143.875 107.032 144.995 107.816 146.387 107.816C147.379 107.816 148.131 107.496 149.059 106.84L149.603 107.88C148.755 108.584 147.747 109 146.371 109C144.163 109 142.595 107.672 142.595 105.512C142.595 103.272 144.083 102.152 146.755 102.152H146.963V100.184H141.859V99.048H158.323V100.184H156.659V109H155.363ZM153.555 104.04C153.555 105 152.915 105.448 151.459 105.928C151.891 106.744 152.467 106.952 153.379 106.952C154.195 106.952 154.851 106.648 155.363 106.232V100.184H148.259V102.136H150.755C152.579 102.136 153.555 102.68 153.555 104.04ZM170.055 100.184V109H168.759V105.784C168.231 106.168 167.479 106.424 166.647 106.424C164.743 106.424 163.655 105.368 163.655 103.24V100.184H162.391V99.048H171.719V100.184H170.055ZM168.759 100.184H164.951V103.288C164.951 104.664 165.543 105.288 166.615 105.288C167.431 105.288 168.215 104.84 168.759 104.264V100.184ZM174.204 100.184V109H172.908V100.184H171.484V99.048H172.796C172.508 98.472 172.332 97.896 172.332 97.24C172.332 95.704 173.468 94.664 175.212 94.664C177.548 94.664 179.18 96.2 180.396 99.16H179.068C178.076 96.888 176.844 95.8 175.388 95.8C174.3 95.8 173.628 96.424 173.628 97.432C173.628 98.088 173.868 98.584 174.108 99.048H175.852V100.184H174.204ZM181.657 108.328L180.729 109.192C179.049 107.672 177.865 106.44 177.033 105.256C176.505 104.504 176.297 103.992 176.297 103.512C176.297 103.016 176.601 102.696 177.145 102.696C177.609 102.696 178.041 102.968 178.457 103.448C179.337 103.032 179.721 102.376 179.721 101.512C179.721 101.032 179.609 100.504 179.449 100.184H175.625V99.048H182.409V100.184H180.777C180.937 100.632 181.001 101.096 181.001 101.672C181.001 103.4 179.897 104.328 178.249 105.032C179.129 106.072 180.393 107.256 181.657 108.328ZM189.996 100.184V109H188.7V105.912C188.14 106.296 187.324 106.552 186.428 106.552C184.524 106.552 183.436 105.496 183.436 103.368V100.184H182.172V99.048H191.644V100.184H189.996ZM188.7 100.184H185.468L188.7 104.232V100.184ZM184.732 103.416C184.732 104.792 185.324 105.416 186.396 105.416C187.02 105.416 187.532 105.24 187.98 104.968L184.732 100.904V103.416ZM198.046 110.024C197.63 109.24 197.31 108.392 197.102 107.704C196.814 107.768 196.51 107.8 196.11 107.8C194.222 107.8 192.27 106.888 192.27 104.6C192.27 102.664 193.63 101.72 196.206 101.72H197.086V100.184H191.422V99.048H200.078V100.184H198.382V102.84H196.398C194.526 102.84 193.566 103.416 193.566 104.664C193.566 105.928 194.558 106.632 196.094 106.632C196.286 106.632 196.494 106.616 196.718 106.584C196.638 106.344 196.606 106.104 196.606 105.88C196.606 105.256 197.006 104.872 197.694 104.872C198.478 104.872 199.054 105.48 199.054 106.136C199.054 106.664 198.734 107.096 198.174 107.384C198.446 108.056 198.766 108.664 199.262 109.48L198.046 110.024ZM200.77 111.368L201.57 108.136L201.778 109.064C201.469 109.064 201.207 108.968 200.994 108.776C200.791 108.584 200.69 108.323 200.69 107.992C200.69 107.672 200.791 107.411 200.994 107.208C201.207 107.005 201.463 106.904 201.762 106.904C202.071 106.904 202.322 107.011 202.514 107.224C202.706 107.427 202.802 107.683 202.802 107.992C202.802 108.099 202.791 108.205 202.77 108.312C202.759 108.408 202.733 108.525 202.69 108.664C202.658 108.792 202.605 108.952 202.53 109.144L201.778 111.368H200.77ZM210.564 100.184V109H209.268V100.184H207.844V99.048H209.124C208.868 98.568 208.692 98.056 208.692 97.384C208.692 95.672 210.1 94.664 212.308 94.664C215.492 94.664 218.084 96.552 219.652 99.16H218.34C216.74 96.952 214.692 95.816 212.628 95.816C210.948 95.816 209.988 96.456 209.988 97.608C209.988 98.232 210.228 98.696 210.484 99.048H212.212V100.184H210.564ZM218.836 95.944C218.836 95.432 219.236 95.016 219.716 95.016C220.196 95.016 220.596 95.432 220.596 95.944C220.596 96.456 220.196 96.872 219.716 96.872C219.236 96.872 218.836 96.456 218.836 95.944ZM219.648 100.184V109H218.352V105.784C217.824 106.168 217.072 106.424 216.24 106.424C214.336 106.424 213.248 105.368 213.248 103.24V100.184H211.984V99.048H221.312V100.184H219.648ZM218.352 100.184H214.544V103.288C214.544 104.664 215.136 105.288 216.208 105.288C217.024 105.288 217.808 104.84 218.352 104.264V100.184ZM222.902 109.096C222.603 109.096 222.347 108.995 222.134 108.792C221.921 108.579 221.814 108.312 221.814 107.992C221.814 107.672 221.921 107.411 222.134 107.208C222.347 107.005 222.603 106.904 222.902 106.904C223.19 106.904 223.435 107.005 223.638 107.208C223.851 107.411 223.958 107.672 223.958 107.992C223.958 108.312 223.851 108.579 223.638 108.792C223.435 108.995 223.19 109.096 222.902 109.096ZM231.72 100.184V109H230.424V100.184H229V99.048H230.28C230.024 98.568 229.848 98.056 229.848 97.368C229.848 95.608 231.32 94.664 233.496 94.664C237.096 94.664 239.944 96.552 241.752 99.16H240.392C238.6 97 236.232 95.816 233.816 95.816C232.168 95.816 231.144 96.408 231.144 97.608C231.144 98.232 231.352 98.68 231.624 99.048H233.368V100.184H231.72ZM240.696 95.944C240.696 95.432 241.096 95.016 241.576 95.016C242.056 95.016 242.456 95.432 242.456 95.944C242.456 96.456 242.056 96.872 241.576 96.872C241.096 96.872 240.696 96.456 240.696 95.944ZM243.525 100.184H241.861V109H240.581V106.52C240.005 106.984 239.173 107.256 238.293 107.256C236.533 107.256 235.333 106.248 235.333 104.696C235.333 103.88 235.685 103.304 236.133 102.952L233.749 102.984V101.832H239.365L239.253 102.968H238.741C237.493 102.968 236.613 103.496 236.613 104.632C236.613 105.576 237.285 106.104 238.197 106.104C239.189 106.104 240.021 105.608 240.581 104.936V100.184H233.141V99.048H243.525V100.184ZM245.121 109.096C244.822 109.096 244.566 108.995 244.353 108.792C244.14 108.579 244.033 108.312 244.033 107.992C244.033 107.672 244.14 107.411 244.353 107.208C244.566 107.005 244.822 106.904 245.121 106.904C245.409 106.904 245.654 107.005 245.857 107.208C246.07 107.411 246.177 107.672 246.177 107.992C246.177 108.312 246.07 108.579 245.857 108.792C245.654 108.995 245.409 109.096 245.121 109.096ZM253.283 106.232C252.323 106.232 251.667 105.752 251.667 105.016C251.667 104.408 252.099 104.056 252.723 104.056C253.251 104.056 253.651 104.28 254.115 104.792C255.395 104.376 256.259 103.352 256.259 101.784C256.259 100.584 255.715 99.944 254.755 99.944C254.019 99.944 253.603 100.36 253.603 100.92C253.603 101.672 254.275 101.992 255.379 102.072L255.187 103.112C253.507 102.984 252.419 102.248 252.419 100.856C252.419 99.656 253.251 98.888 254.723 98.888C256.435 98.888 257.523 100.008 257.523 101.88C257.523 103.784 256.467 105.112 254.915 105.768C255.763 106.584 256.515 107.496 257.171 108.392L256.067 109.096C255.155 107.816 254.419 106.888 253.795 106.184C253.619 106.216 253.475 106.232 253.283 106.232ZM260.675 100.184V109H259.379V100.184H257.955V99.048H262.323V100.184H260.675ZM264.814 100.184V109H263.518V100.184H262.094V99.048H266.462V100.184H264.814ZM277.898 100.184V109H276.602V108.28C275.834 108.696 274.89 108.888 273.722 108.888C271.146 108.888 269.338 107.736 268.154 106.248C267.338 105.224 266.906 104.328 266.906 103.56C266.906 103 267.242 102.696 267.77 102.696C268.234 102.696 268.618 102.952 269.066 103.464C269.562 103.064 269.706 102.344 269.706 101.672C269.706 101.128 269.642 100.6 269.45 100.184H266.234V99.048H279.546V100.184H277.898ZM274.778 105.24C275.514 105.24 276.154 104.936 276.602 104.52V100.184H270.73C270.906 100.568 271.002 101.064 271.002 101.672C271.002 103.416 270.202 104.392 268.778 105.112C269.898 106.792 271.578 107.736 273.738 107.736C274.826 107.736 275.77 107.528 276.602 107.096V105.896C276.122 106.168 275.546 106.328 274.794 106.328C273.034 106.328 271.93 105.368 271.93 103.848C271.93 102.328 272.986 101.432 274.778 101.432C275.258 101.432 275.706 101.48 276.09 101.592L275.994 102.68C275.626 102.584 275.258 102.536 274.874 102.536C273.834 102.536 273.226 103 273.226 103.912C273.226 104.84 273.898 105.24 274.778 105.24ZM282.048 100.184V109H280.752V100.184H279.328V99.048H283.696V100.184H282.048ZM25.592 129.224C23.992 127.656 22.696 126.04 22.12 124.984C21.816 124.44 21.672 123.96 21.672 123.56C21.672 123 21.992 122.696 22.536 122.696C23 122.696 23.432 122.984 23.848 123.464C24.424 123.064 24.616 122.344 24.616 121.64C24.616 121.048 24.488 120.52 24.344 120.184H21V119.048H32.04V120.184H30.392V129H29.096V124.904C28.552 125.032 27.992 125.096 27.4 125.096C26.552 125.096 25.544 124.936 24.648 124.472C24.328 124.712 23.912 124.92 23.432 125.08C24.2 126.12 25.288 127.176 26.568 128.36L25.592 129.224ZM27.384 123.944C27.992 123.944 28.536 123.88 29.096 123.72V120.184H25.656C25.832 120.648 25.912 121.16 25.912 121.8C25.912 122.504 25.752 123.112 25.416 123.624C26.072 123.864 26.664 123.944 27.384 123.944ZM38.4365 130.024C38.0205 129.24 37.7005 128.392 37.4925 127.704C37.2045 127.768 36.9005 127.8 36.5005 127.8C34.6125 127.8 32.6605 126.888 32.6605 124.6C32.6605 122.664 34.0205 121.72 36.5965 121.72H37.4765V120.184H31.8125V119.048H40.4685V120.184H38.7725V122.84H36.7885C34.9165 122.84 33.9565 123.416 33.9565 124.664C33.9565 125.928 34.9485 126.632 36.4845 126.632C36.6765 126.632 36.8845 126.616 37.1085 126.584C37.0285 126.344 36.9965 126.104 36.9965 125.88C36.9965 125.256 37.3965 124.872 38.0845 124.872C38.8685 124.872 39.4445 125.48 39.4445 126.136C39.4445 126.664 39.1245 127.096 38.5645 127.384C38.8365 128.056 39.1565 128.664 39.6525 129.48L38.4365 130.024ZM44.9045 129.224C43.3045 127.656 42.0085 126.04 41.4325 124.984C41.1285 124.44 40.9845 123.96 40.9845 123.56C40.9845 123 41.3045 122.696 41.8485 122.696C42.3125 122.696 42.7445 122.984 43.1605 123.464C43.7365 123.064 43.9285 122.344 43.9285 121.64C43.9285 121.048 43.8005 120.52 43.6565 120.184H40.3125V119.048H48.2485V120.184H44.9685C45.1445 120.648 45.2245 121.16 45.2245 121.8C45.2245 122.536 45.0485 123.16 44.6805 123.688C45.3525 123.928 45.9925 124.024 46.6805 124.024C47.2245 124.024 47.7045 123.976 48.2805 123.88L48.3125 125.016C47.7685 125.144 47.3045 125.176 46.6805 125.176C45.8485 125.176 44.7925 124.984 43.9125 124.504C43.5925 124.728 43.1925 124.936 42.7445 125.08C43.5125 126.12 44.6005 127.176 45.8805 128.36L44.9045 129.224ZM56.0353 119.048V120.184H54.3873V129H53.0913V126.232C52.5313 126.616 51.8433 126.888 50.8513 126.888C48.7873 126.888 47.6193 125.704 47.0592 123.272C48.7073 122.968 49.3793 122.52 49.3793 121.656C49.3793 121.096 49.1073 120.584 48.6753 120.184H46.5312V119.048H56.0353ZM48.6593 124.088C49.0433 125.192 49.6513 125.752 50.8353 125.752C51.8273 125.752 52.5473 125.24 53.0913 124.648V120.184H50.0673C50.4673 120.696 50.6593 121.256 50.6593 121.8C50.6593 122.936 50.0353 123.64 48.6593 124.088ZM57.6365 122.632C57.3378 122.632 57.0818 122.531 56.8685 122.328C56.6552 122.115 56.5485 121.848 56.5485 121.528C56.5485 121.208 56.6552 120.947 56.8685 120.744C57.0818 120.541 57.3378 120.44 57.6365 120.44C57.9245 120.44 58.1698 120.541 58.3725 120.744C58.5858 120.947 58.6925 121.208 58.6925 121.528C58.6925 121.848 58.5858 122.115 58.3725 122.328C58.1698 122.531 57.9245 122.632 57.6365 122.632ZM57.6365 129.096C57.3378 129.096 57.0818 128.995 56.8685 128.792C56.6552 128.579 56.5485 128.312 56.5485 127.992C56.5485 127.672 56.6552 127.411 56.8685 127.208C57.0818 127.005 57.3378 126.904 57.6365 126.904C57.9245 126.904 58.1698 127.005 58.3725 127.208C58.5858 127.411 58.6925 127.672 58.6925 127.992C58.6925 128.312 58.5858 128.579 58.3725 128.792C58.1698 128.995 57.9245 129.096 57.6365 129.096ZM66.4544 120.184V129H65.1584V120.184H63.7344V119.048H65.0144C64.7584 118.568 64.5824 118.056 64.5824 117.368C64.5824 115.608 66.2464 114.664 68.6784 114.664C72.9664 114.664 76.1664 116.648 78.2784 119.16H76.8544C74.6944 117.048 71.9744 115.816 68.9984 115.816C67.0784 115.816 65.8784 116.408 65.8784 117.608C65.8784 118.232 66.0864 118.68 66.3584 119.048H68.1024V120.184H66.4544ZM78.323 120.184V129H77.027V123.08H74.835C74.403 123.08 74.115 123.064 73.923 123.032C74.691 123.656 75.203 124.568 75.203 125.512C75.203 127 74.115 127.72 72.835 127.72C71.139 127.72 69.715 126.392 68.371 122.584L69.507 122.184C70.483 125.048 71.523 126.552 72.771 126.552C73.459 126.552 73.939 126.216 73.939 125.368C73.939 124.424 73.203 123.576 72.243 122.968L72.707 121.944H77.027V120.184H67.875V119.048H79.971V120.184H78.323ZM79.75 120.184V119.048H87.83V120.184H79.75ZM83.83 129.224C81.734 127.992 80.47 126.632 80.47 124.808C80.47 123.032 81.622 122.12 83.254 122.12C84.166 122.12 84.87 122.44 85.414 122.936C85.99 122.408 86.742 122.152 87.686 122.152C88.022 122.152 88.374 122.2 88.566 122.264V123.368C88.262 123.288 87.974 123.272 87.686 123.272C86.598 123.272 85.846 123.944 85.51 125.912L84.23 125.528C84.326 124.84 84.502 124.264 84.758 123.784C84.406 123.464 83.958 123.272 83.382 123.272C82.374 123.272 81.766 123.928 81.766 124.936C81.766 126.152 82.614 127.112 84.582 128.232L83.83 129.224ZM91.9686 127.976C92.7206 127.656 93.1206 127.176 93.1206 126.664C93.1206 125.96 92.5926 125.448 91.2966 125.448C89.8246 125.448 89.0246 126.104 89.0246 127.176C89.0246 128.456 90.4006 129.24 92.7686 130.184L92.1286 131.272C89.6326 130.264 87.7446 129.144 87.7446 127.128C87.7446 126.232 88.0966 125.544 88.6886 125.08C88.1126 124.568 87.7446 124.024 87.7446 123.336C87.7446 122.184 88.5446 121.56 90.2086 121.56H92.4166V120.184H86.6406V119.048H95.3606V120.184H93.7126V122.696H90.3846C89.4406 122.696 89.0246 122.968 89.0246 123.544C89.0246 123.944 89.3286 124.344 89.6486 124.568C90.1446 124.392 90.7206 124.312 91.3286 124.312C93.5046 124.312 94.3846 125.4 94.3846 126.68C94.3846 127.576 94.0006 128.312 92.8806 128.904L91.9686 127.976ZM97.8606 120.184V129H96.5646V120.184H95.1406V119.048H99.5086V120.184H97.8606ZM106.298 120.184V129H105.002V120.184H103.578V119.048H104.858C104.602 118.568 104.426 118.072 104.426 117.432C104.426 115.72 105.834 114.664 108.01 114.664C111.114 114.664 113.61 116.552 115.13 119.16H113.818C112.282 116.952 110.33 115.816 108.33 115.816C106.682 115.816 105.722 116.456 105.722 117.608C105.722 118.232 105.962 118.696 106.218 119.048H107.946V120.184H106.298ZM107.719 119.048H116.823V120.184H115.175V129H113.879V124.232H110.983V125.096C110.983 125.688 110.663 125.992 110.167 125.992C109.383 125.992 108.311 124.808 108.311 123.912C108.311 123.432 108.567 123.096 109.287 123.096H113.879V120.184H107.719V119.048ZM126.098 119.048V120.184H124.45V129H123.154V126.232C122.594 126.616 121.906 126.888 120.914 126.888C118.85 126.888 117.682 125.704 117.122 123.272C118.77 122.968 119.442 122.52 119.442 121.656C119.442 121.096 119.17 120.584 118.738 120.184H116.594V119.048H126.098ZM118.722 124.088C119.106 125.192 119.714 125.752 120.898 125.752C121.89 125.752 122.61 125.24 123.154 124.648V120.184H120.13C120.53 120.696 120.722 121.256 120.722 121.8C120.722 122.936 120.098 123.64 118.722 124.088ZM128.595 120.184V129H127.299V120.184H125.875V119.048H127.283C126.419 116.296 126.099 115.832 125.027 115.832C124.579 115.832 124.083 115.944 123.699 116.088L123.347 114.952C123.795 114.776 124.403 114.664 124.947 114.664C126.819 114.664 127.395 115.576 128.467 119.048H130.243V120.184H128.595ZM140.464 120.184V129H139.168V123.08H136.976C136.544 123.08 136.256 123.064 136.064 123.032C136.832 123.656 137.344 124.568 137.344 125.512C137.344 127 136.256 127.72 134.976 127.72C133.28 127.72 131.856 126.392 130.512 122.584L131.648 122.184C132.624 125.048 133.664 126.552 134.912 126.552C135.6 126.552 136.08 126.216 136.08 125.368C136.08 124.424 135.344 123.576 134.384 122.968L134.848 121.944H139.168V120.184H130.016V119.048H142.112V120.184H140.464ZM141.891 119.048H150.995V120.184H149.347V129H148.051V124.232H145.155V125.096C145.155 125.688 144.835 125.992 144.339 125.992C143.555 125.992 142.483 124.808 142.483 123.912C142.483 123.432 142.739 123.096 143.459 123.096H148.051V120.184H141.891V119.048ZM159.655 129.224C158.055 127.656 156.759 126.04 156.183 124.984C155.879 124.44 155.735 123.96 155.735 123.56C155.735 123 156.055 122.696 156.599 122.696C157.062 122.696 157.495 122.984 157.911 123.464C158.487 123.064 158.679 122.344 158.679 121.64C158.679 121.048 158.551 120.52 158.407 120.184H155.062V119.048H166.103V120.184H164.455V129H163.159V124.904C162.615 125.032 162.055 125.096 161.463 125.096C160.615 125.096 159.607 124.936 158.711 124.472C158.391 124.712 157.975 124.92 157.495 125.08C158.263 126.12 159.351 127.176 160.631 128.36L159.655 129.224ZM161.447 123.944C162.055 123.944 162.599 123.88 163.159 123.72V120.184H159.719C159.895 120.648 159.975 121.16 159.975 121.8C159.975 122.504 159.815 123.112 159.479 123.624C160.135 123.864 160.727 123.944 161.447 123.944ZM168.595 120.184V129H167.299V120.184H165.875V119.048H167.155C166.899 118.568 166.723 118.056 166.723 117.384C166.723 115.672 168.131 114.664 170.339 114.664C173.523 114.664 176.115 116.552 177.683 119.16H176.371C174.771 116.952 172.723 115.816 170.659 115.816C168.979 115.816 168.019 116.456 168.019 117.608C168.019 118.232 168.259 118.696 168.515 119.048H170.243V120.184H168.595ZM178.16 120.184V129H176.864V125H173.328V125.592C173.328 126.296 172.96 126.584 172.56 126.584C171.744 126.584 170.64 125.368 170.64 124.552C170.64 124.168 170.896 123.864 171.616 123.864H172.032V120.184H170.016V119.048H179.808V120.184H178.16ZM176.864 120.184H173.328V123.864H176.864V120.184ZM187.274 120.184V129H185.978V123.752H183.754C182.41 123.752 181.594 124.168 181.594 125.304C181.594 126.344 182.266 127.192 183.546 128.408L182.634 129.224C181.13 127.768 180.298 126.568 180.298 125.144C180.298 123.416 181.562 122.616 183.53 122.616H185.978V120.184H179.578V119.048H188.922V120.184H187.274ZM191.423 120.184V129H190.127V120.184H188.703V119.048H190.095C189.615 116.856 188.879 115.8 187.791 115.8C186.879 115.8 186.479 116.344 186.479 117.224C186.479 117.848 186.703 118.472 187.023 119.16H185.743C185.375 118.408 185.183 117.656 185.183 116.984C185.183 115.624 186.063 114.664 187.583 114.664C189.743 114.664 190.687 116.216 191.295 119.048H193.071V120.184H191.423ZM193.692 131.368L194.492 128.136L194.7 129.064C194.39 129.064 194.129 128.968 193.916 128.776C193.713 128.584 193.612 128.323 193.612 127.992C193.612 127.672 193.713 127.411 193.916 127.208C194.129 127.005 194.385 126.904 194.684 126.904C194.993 126.904 195.244 127.011 195.436 127.224C195.628 127.427 195.724 127.683 195.724 127.992C195.724 128.099 195.713 128.205 195.692 128.312C195.681 128.408 195.654 128.525 195.612 128.664C195.58 128.792 195.526 128.952 195.452 129.144L194.7 131.368H193.692ZM208.43 120.184V129H207.134V125.784C206.606 126.168 205.854 126.424 205.022 126.424C203.118 126.424 202.03 125.368 202.03 123.24V120.184H200.766V119.048H210.094V120.184H208.43ZM207.134 120.184H203.326V123.288C203.326 124.664 203.918 125.288 204.99 125.288C205.806 125.288 206.59 124.84 207.134 124.264V120.184ZM207.267 133.288C205.395 133.288 203.971 132.376 202.563 130.76L203.507 129.912C204.771 131.464 205.843 132.136 207.219 132.136C208.355 132.136 208.915 131.704 208.915 130.952C208.915 130.344 208.563 129.912 207.811 129.912C207.203 129.912 206.691 130.184 206.195 130.648L205.475 129.768C206.083 129.16 206.803 128.824 207.827 128.824C209.299 128.824 210.115 129.768 210.115 131.064C210.115 132.456 209.107 133.288 207.267 133.288ZM220.003 120.184V129H218.707V120.184H216.579V123.864C216.579 124.76 216.403 125.352 216.019 125.832C215.571 126.36 214.867 126.664 213.875 126.664C212.867 126.664 212.147 126.344 211.683 125.72C211.315 125.224 211.123 124.52 211.123 123.368V120.184H209.859V119.048H221.651V120.184H220.003ZM213.843 125.528C214.403 125.528 214.771 125.368 214.995 125.016C215.219 124.664 215.283 124.28 215.283 123.352V120.184H212.419V123.352C212.419 124.184 212.483 124.632 212.707 124.984C212.931 125.336 213.267 125.528 213.843 125.528ZM218.718 119.16C217.838 116.312 217.518 115.832 216.43 115.832C215.982 115.832 215.486 115.944 215.102 116.088L214.75 114.952C215.198 114.776 215.806 114.664 216.35 114.664C218.222 114.664 218.798 115.576 219.902 119.16H218.718ZM229.127 124.536C227.815 124.536 226.743 123.608 226.743 122.296C226.743 121.096 227.703 120.072 229.127 120.072C230.487 120.072 231.495 121.032 231.495 122.296C231.495 123.544 230.487 124.536 229.127 124.536ZM229.127 123.48C229.863 123.48 230.375 123 230.375 122.296C230.375 121.624 229.863 121.128 229.127 121.128C228.343 121.128 227.863 121.656 227.863 122.296C227.863 123 228.407 123.48 229.127 123.48ZM244.972 120.184V129H243.676V125H240.14V125.592C240.14 126.296 239.772 126.584 239.372 126.584C238.556 126.584 237.452 125.368 237.452 124.552C237.452 124.168 237.708 123.864 238.428 123.864H238.844V120.184H236.828V119.048H246.62V120.184H244.972ZM243.676 120.184H240.14V123.864H243.676V120.184ZM249.111 120.184V129H247.815V120.184H246.391V119.048H250.759V120.184H249.111ZM252.355 129.096C252.057 129.096 251.801 128.995 251.587 128.792C251.374 128.579 251.267 128.312 251.267 127.992C251.267 127.672 251.374 127.411 251.587 127.208C251.801 127.005 252.057 126.904 252.355 126.904C252.643 126.904 252.889 127.005 253.091 127.208C253.305 127.411 253.411 127.672 253.411 127.992C253.411 128.312 253.305 128.579 253.091 128.792C252.889 128.995 252.643 129.096 252.355 129.096ZM258.453 119.048H267.557V120.184H265.909V129H264.613V124.232H261.717V125.096C261.717 125.688 261.397 125.992 260.901 125.992C260.117 125.992 259.045 124.808 259.045 123.912C259.045 123.432 259.301 123.096 260.021 123.096H264.613V120.184H258.453V119.048ZM270.656 120.184V125.256C270.656 125.816 270.368 126.152 269.888 126.152C269.056 126.152 267.984 124.968 267.984 124.072C267.984 123.592 268.24 123.256 268.96 123.256H269.36V120.184H267.328V119.048H276.56V120.184H274.912V129H273.616V120.184H270.656ZM282.376 128.328L281.448 129.192C279.768 127.672 278.584 126.44 277.752 125.256C277.224 124.504 277.016 123.992 277.016 123.512C277.016 123.016 277.32 122.696 277.864 122.696C278.328 122.696 278.76 122.968 279.176 123.448C280.056 123.032 280.44 122.376 280.44 121.512C280.44 121.032 280.328 120.504 280.168 120.184H276.344V119.048H283.128V120.184H281.496C281.656 120.632 281.72 121.096 281.72 121.672C281.72 123.4 280.616 124.328 278.968 125.032C279.848 126.072 281.112 127.256 282.376 128.328ZM287.483 129.224C285.883 127.656 284.587 126.04 284.011 124.984C283.707 124.44 283.563 123.96 283.563 123.56C283.563 123 283.883 122.696 284.427 122.696C284.891 122.696 285.323 122.984 285.739 123.464C286.315 123.064 286.507 122.344 286.507 121.64C286.507 121.048 286.379 120.52 286.235 120.184H282.891V119.048H293.931V120.184H292.283V129H290.987V124.904C290.443 125.032 289.883 125.096 289.291 125.096C288.443 125.096 287.435 124.936 286.539 124.472C286.219 124.712 285.803 124.92 285.323 125.08C286.091 126.12 287.179 127.176 288.459 128.36L287.483 129.224ZM289.275 123.944C289.883 123.944 290.427 123.88 290.987 123.72V120.184H287.547C287.723 120.648 287.803 121.16 287.803 121.8C287.803 122.504 287.643 123.112 287.307 123.624C287.963 123.864 288.555 123.944 289.275 123.944ZM290.999 119.16C290.119 116.312 289.799 115.832 288.711 115.832C288.263 115.832 287.767 115.944 287.383 116.088L287.031 114.952C287.479 114.776 288.087 114.664 288.631 114.664C290.503 114.664 291.079 115.576 292.183 119.16H290.999ZM302.823 120.184H301.175V129H299.895V126.472C299.287 126.92 298.487 127.16 297.559 127.16C295.799 127.16 294.439 126.152 294.439 124.376C294.439 122.472 295.815 121.576 297.751 121.576C298.343 121.576 298.871 121.64 299.319 121.752L299.239 122.904C298.791 122.808 298.343 122.744 297.799 122.744C296.599 122.744 295.735 123.32 295.735 124.408C295.735 125.368 296.359 126.008 297.559 126.008C298.503 126.008 299.335 125.576 299.895 124.904V120.184H293.703V119.048H302.823V120.184ZM315.122 120.184H309.922V123.272C310.37 122.872 311.01 122.6 311.794 122.6C313.314 122.6 314.21 123.576 314.21 125.16C314.21 126.28 313.81 127.288 312.866 128.328L311.746 127.624C312.45 126.904 312.93 126.12 312.93 125.144C312.93 124.216 312.466 123.72 311.65 123.72C310.978 123.72 310.322 124.184 309.922 124.904V129H308.626V126.28C308.05 126.792 307.282 127.112 306.322 127.112C304.69 127.112 303.33 126.184 303.33 124.344C303.33 122.6 304.546 121.576 306.626 121.576C307.17 121.576 307.666 121.64 308.066 121.736L307.954 122.904C307.586 122.808 307.138 122.744 306.658 122.744C305.346 122.744 304.626 123.32 304.626 124.392C304.626 125.448 305.362 125.96 306.322 125.96C307.298 125.96 308.146 125.416 308.626 124.728V120.184H302.594V119.048H315.122V120.184ZM316.699 122.632C316.4 122.632 316.144 122.531 315.931 122.328C315.718 122.115 315.611 121.848 315.611 121.528C315.611 121.208 315.718 120.947 315.931 120.744C316.144 120.541 316.4 120.44 316.699 120.44C316.987 120.44 317.232 120.541 317.435 120.744C317.648 120.947 317.755 121.208 317.755 121.528C317.755 121.848 317.648 122.115 317.435 122.328C317.232 122.531 316.987 122.632 316.699 122.632ZM316.699 129.096C316.4 129.096 316.144 128.995 315.931 128.792C315.718 128.579 315.611 128.312 315.611 127.992C315.611 127.672 315.718 127.411 315.931 127.208C316.144 127.005 316.4 126.904 316.699 126.904C316.987 126.904 317.232 127.005 317.435 127.208C317.648 127.411 317.755 127.672 317.755 127.992C317.755 128.312 317.648 128.579 317.435 128.792C317.232 128.995 316.987 129.096 316.699 129.096ZM325.517 120.184V129H324.221V120.184H322.797V119.048H324.077C323.821 118.568 323.645 118.056 323.645 117.384C323.645 115.672 325.053 114.664 327.261 114.664C330.445 114.664 333.037 116.552 334.605 119.16H333.293C331.693 116.952 329.645 115.816 327.581 115.816C325.901 115.816 324.941 116.456 324.941 117.608C324.941 118.232 325.181 118.696 325.437 119.048H327.165V120.184H325.517ZM333.789 115.944C333.789 115.432 334.189 115.016 334.669 115.016C335.149 115.016 335.549 115.432 335.549 115.944C335.549 116.456 335.149 116.872 334.669 116.872C334.189 116.872 333.789 116.456 333.789 115.944ZM334.602 120.184V129H333.306V125.784C332.778 126.168 332.026 126.424 331.194 126.424C329.289 126.424 328.202 125.368 328.202 123.24V120.184H326.938V119.048H336.266V120.184H334.602ZM333.306 120.184H329.498V123.288C329.498 124.664 330.09 125.288 331.161 125.288C331.978 125.288 332.762 124.84 333.306 124.264V120.184ZM337.855 129.096C337.557 129.096 337.301 128.995 337.087 128.792C336.874 128.579 336.767 128.312 336.767 127.992C336.767 127.672 336.874 127.411 337.087 127.208C337.301 127.005 337.557 126.904 337.855 126.904C338.143 126.904 338.389 127.005 338.591 127.208C338.805 127.411 338.911 127.672 338.911 127.992C338.911 128.312 338.805 128.579 338.591 128.792C338.389 128.995 338.143 129.096 337.855 129.096ZM346.673 120.184V129H345.377V120.184H343.953V119.048H345.233C344.977 118.568 344.801 118.056 344.801 117.368C344.801 115.608 346.273 114.664 348.449 114.664C352.049 114.664 354.897 116.552 356.705 119.16H355.345C353.553 117 351.185 115.816 348.769 115.816C347.121 115.816 346.097 116.408 346.097 117.608C346.097 118.232 346.305 118.68 346.577 119.048H348.321V120.184H346.673ZM355.649 115.944C355.649 115.432 356.049 115.016 356.529 115.016C357.009 115.016 357.409 115.432 357.409 115.944C357.409 116.456 357.009 116.872 356.529 116.872C356.049 116.872 355.649 116.456 355.649 115.944ZM358.478 120.184H356.814V129H355.534V126.52C354.958 126.984 354.126 127.256 353.246 127.256C351.486 127.256 350.286 126.248 350.286 124.696C350.286 123.88 350.638 123.304 351.086 122.952L348.702 122.984V121.832H354.318L354.206 122.968H353.694C352.446 122.968 351.566 123.496 351.566 124.632C351.566 125.576 352.238 126.104 353.15 126.104C354.142 126.104 354.974 125.608 355.534 124.936V120.184H348.094V119.048H358.478V120.184ZM360.074 129.096C359.775 129.096 359.519 128.995 359.306 128.792C359.093 128.579 358.986 128.312 358.986 127.992C358.986 127.672 359.093 127.411 359.306 127.208C359.519 127.005 359.775 126.904 360.074 126.904C360.362 126.904 360.607 127.005 360.81 127.208C361.023 127.411 361.13 127.672 361.13 127.992C361.13 128.312 361.023 128.579 360.81 128.792C360.607 128.995 360.362 129.096 360.074 129.096ZM374.316 120.184V129H373.02V125H369.484V125.592C369.484 126.296 369.116 126.584 368.716 126.584C367.9 126.584 366.796 125.368 366.796 124.552C366.796 124.168 367.052 123.864 367.772 123.864H368.188V120.184H366.172V119.048H375.964V120.184H374.316ZM373.02 120.184H369.484V123.864H373.02V120.184ZM375.734 119.048H384.838V120.184H383.19V129H381.894V124.232H378.998V125.096C378.998 125.688 378.678 125.992 378.182 125.992C377.398 125.992 376.326 124.808 376.326 123.912C376.326 123.432 376.582 123.096 377.302 123.096H381.894V120.184H375.734V119.048ZM392.273 120.184V129H390.977V125.784C390.449 126.168 389.697 126.424 388.865 126.424C386.961 126.424 385.873 125.368 385.873 123.24V120.184H384.609V119.048H393.937V120.184H392.273ZM390.977 120.184H387.169V123.288C387.169 124.664 387.761 125.288 388.833 125.288C389.649 125.288 390.433 124.84 390.977 124.264V120.184ZM396.423 120.184V129H395.127V120.184H393.703V119.048H398.071V120.184H396.423Z" fill="black"/>
</g>
<defs>
<filter id="filter0_d_198_23" x="-4" y="0" width="502.5" height="147" filterUnits="userSpaceOnUse" color-interpolation-filters="sRGB">
<feFlood flood-opacity="0" result="BackgroundImageFix"/>
<feColorMatrix in="SourceAlpha" type="matrix" values="0 0 0 0 0 0 0 0 0 0 0 0 0 0 0 0 0 0 127 0" result="hardAlpha"/>
<feOffset dy="4"/>
<feGaussianBlur stdDeviation="2"/>
<feComposite in2="hardAlpha" operator="out"/>
<feColorMatrix type="matrix" values="0 0 0 0 0 0 0 0 0 0 0 0 0 0 0 0 0 0 0.25 0"/>
<feBlend mode="normal" in2="BackgroundImageFix" result="effect1_dropShadow_198_23"/>
<feBlend mode="normal" in="SourceGraphic" in2="effect1_dropShadow_198_23" result="shape"/>
</filter>
</defs>
</svg>
